<!DOCTYPE svg PUBLIC "-//W3C//DTD SVG 1.1//EN" "https://www.w3.org/Graphics/SVG/1.1/DTD/svg11.dtd"><svg xmlns="http://www.w3.org/2000/svg" class="sc-hFrEEg bRJrsP graph" data-testid="graph" width="2823" height="1707"><g transform="translate(12.000007026428648,11.999999263811333)" class="new-look-graph"><g class="nodes"><g class="node-container" transform="translate(1245.25,22)"><g><circle class="sc-brCFrO cqORIG shape" r="22"/><text class="sc-dFdIVH edvWgW label"><tspan xml:space="preserve" text-anchor="middle" alignment-baseline="central">Start</tspan></text></g></g><g class="node-container" transform="translate(1245.25,103.5)"><g class="sc-grREDI kWgEsm node state Choice" data-testid="graph-trigger_family_present" data-state-id="trigger_family_present" data-state-type="Choice"><g class="new-look-state-node "><rect x="-120" y="-24.5" width="240" height="49" rx="3" ry="3"/><g class="handle" transform="translate(-120,-24.5)"><path d="M5,16 L5,34 M8,16 L8,34"/></g><g class="icon" transform="translate(-104,-24)"><rect fill="var(--color-background-container-header-g9rg0j, #fafafa)" x="0.0361026108" y="0.0181291967" width="48" height="48"/><line x1="47.5" y1="0.49122807" x2="47.5" y2="47.5" stroke="var(--color-text-home-header-secondary-g5rqe4, #d5dbdb)" stroke-linecap="square"/><line x1="0.5" y1="0.49122807" x2="0.5" y2="47.5" stroke="var(--color-text-home-header-secondary-g5rqe4, #d5dbdb)" stroke-linecap="square"/><use href="#icon-flow-choice"/></g><g class="text-lines" transform="translate(-48,-24.5)"><text transform="translate(0,17)" class="line1"><tspan xml:space="preserve" text-anchor="start">Choice state</tspan></text><text transform="translate(0,35.5)" class="line2 label"><tspan xml:space="preserve" text-anchor="start">trigger_family_present</tspan></text></g></g></g></g><g class="node-container" transform="translate(158.5,1495.5)"><g class="sc-grREDI kWgEsm node state Task" data-testid="graph-Notification:Job Failure raise Incident" data-state-id="Notification:Job Failure raise Incident" data-state-type="Task"><g class="new-look-state-node "><rect x="-158.5" y="-24.5" width="317" height="49" rx="3" ry="3"/><g class="handle" transform="translate(-158.5,-24.5)"><path d="M5,16 L5,34 M8,16 L8,34"/></g><g class="icon" transform="translate(-142.5,-24)"><rect fill="var(--color-background-container-header-g9rg0j, #fafafa)" x="0.0361026108" y="0.0181291967" width="48" height="48"/><line x1="47.5" y1="0.49122807" x2="47.5" y2="47.5" stroke="var(--color-text-home-header-secondary-g5rqe4, #d5dbdb)" stroke-linecap="square"/><line x1="0.5" y1="0.49122807" x2="0.5" y2="47.5" stroke="var(--color-text-home-header-secondary-g5rqe4, #d5dbdb)" stroke-linecap="square"/><use href="#icon-service-sns"/></g><g class="text-lines" transform="translate(-86.5,-24.5)"><text transform="translate(0,17)" class="line1"><tspan xml:space="preserve" text-anchor="start">SNS: Publish</tspan></text><text transform="translate(0,35.5)" class="line2 label"><tspan xml:space="preserve" text-anchor="start">Notification:Job Failure raise Incident</tspan></text></g></g></g></g><g class="node-container" transform="translate(1701.5,204)"><g class="sc-grREDI kWgEsm node state Task" data-testid="graph-trigger_family_remove" data-state-id="trigger_family_remove" data-state-type="Task"><g class="new-look-state-node "><rect x="-120" y="-24.5" width="240" height="49" rx="3" ry="3"/><g class="handle" transform="translate(-120,-24.5)"><path d="M5,16 L5,34 M8,16 L8,34"/></g><g class="icon" transform="translate(-104,-24)"><rect fill="var(--color-background-container-header-g9rg0j, #fafafa)" x="0.0361026108" y="0.0181291967" width="48" height="48"/><line x1="47.5" y1="0.49122807" x2="47.5" y2="47.5" stroke="var(--color-text-home-header-secondary-g5rqe4, #d5dbdb)" stroke-linecap="square"/><line x1="0.5" y1="0.49122807" x2="0.5" y2="47.5" stroke="var(--color-text-home-header-secondary-g5rqe4, #d5dbdb)" stroke-linecap="square"/><use href="#icon-service-batch"/></g><g class="text-lines" transform="translate(-48,-24.5)"><text transform="translate(0,17)" class="line1"><tspan xml:space="preserve" text-anchor="start">Batch: SubmitJob</tspan></text><text transform="translate(0,35.5)" class="line2 label"><tspan xml:space="preserve" text-anchor="start">trigger_family_remove</tspan></text></g></g></g></g><g class="node-container" transform="translate(158.5,1579.5)"><g class="sc-grREDI kWgEsm node state Fail" data-testid="graph-Fail" data-state-id="Fail" data-state-type="Fail"><g class="new-look-state-node "><rect x="-120" y="-24.5" width="240" height="49" rx="3" ry="3"/><g class="handle" transform="translate(-120,-24.5)"><path d="M5,16 L5,34 M8,16 L8,34"/></g><g class="icon" transform="translate(-104,-24)"><rect fill="var(--color-background-container-header-g9rg0j, #fafafa)" x="0.0361026108" y="0.0181291967" width="48" height="48"/><line x1="47.5" y1="0.49122807" x2="47.5" y2="47.5" stroke="var(--color-text-home-header-secondary-g5rqe4, #d5dbdb)" stroke-linecap="square"/><line x1="0.5" y1="0.49122807" x2="0.5" y2="47.5" stroke="var(--color-text-home-header-secondary-g5rqe4, #d5dbdb)" stroke-linecap="square"/><use href="#icon-flow-fail"/></g><g class="text-lines" transform="translate(-48,-24.5)"><text transform="translate(0,17)" class="line1"><tspan xml:space="preserve" text-anchor="start">Fail state</tspan></text><text transform="translate(0,35.5)" class="line2 label"><tspan xml:space="preserve" text-anchor="start">Fail</tspan></text></g></g></g></g><g class="node-container" transform="translate(1701.5,288)"><g class="sc-grREDI kWgEsm node state Task" data-testid="graph-family_file_list" data-state-id="family_file_list" data-state-type="Task"><g class="new-look-state-node "><rect x="-120" y="-24.5" width="240" height="49" rx="3" ry="3"/><g class="handle" transform="translate(-120,-24.5)"><path d="M5,16 L5,34 M8,16 L8,34"/></g><g class="icon" transform="translate(-104,-24)"><rect fill="var(--color-background-container-header-g9rg0j, #fafafa)" x="0.0361026108" y="0.0181291967" width="48" height="48"/><line x1="47.5" y1="0.49122807" x2="47.5" y2="47.5" stroke="var(--color-text-home-header-secondary-g5rqe4, #d5dbdb)" stroke-linecap="square"/><line x1="0.5" y1="0.49122807" x2="0.5" y2="47.5" stroke="var(--color-text-home-header-secondary-g5rqe4, #d5dbdb)" stroke-linecap="square"/><use href="#icon-service-batch"/></g><g class="text-lines" transform="translate(-48,-24.5)"><text transform="translate(0,17)" class="line1"><tspan xml:space="preserve" text-anchor="start">Batch: SubmitJob</tspan></text><text transform="translate(0,35.5)" class="line2 label"><tspan xml:space="preserve" text-anchor="start">family_file_list</tspan></text></g></g></g></g><g class="node-container" transform="translate(1779,372)"><g class="sc-grREDI kWgEsm node state Task" data-testid="graph-dbupload" data-state-id="dbupload" data-state-type="Task"><g class="new-look-state-node "><rect x="-120" y="-24.5" width="240" height="49" rx="3" ry="3"/><g class="handle" transform="translate(-120,-24.5)"><path d="M5,16 L5,34 M8,16 L8,34"/></g><g class="icon" transform="translate(-104,-24)"><rect fill="var(--color-background-container-header-g9rg0j, #fafafa)" x="0.0361026108" y="0.0181291967" width="48" height="48"/><line x1="47.5" y1="0.49122807" x2="47.5" y2="47.5" stroke="var(--color-text-home-header-secondary-g5rqe4, #d5dbdb)" stroke-linecap="square"/><line x1="0.5" y1="0.49122807" x2="0.5" y2="47.5" stroke="var(--color-text-home-header-secondary-g5rqe4, #d5dbdb)" stroke-linecap="square"/><use href="#icon-service-batch"/></g><g class="text-lines" transform="translate(-48,-24.5)"><text transform="translate(0,17)" class="line1"><tspan xml:space="preserve" text-anchor="start">Batch: SubmitJob</tspan></text><text transform="translate(0,35.5)" class="line2 label"><tspan xml:space="preserve" text-anchor="start">dbupload</tspan></text></g></g></g></g><g class="node-container" transform="translate(1779,456)"><g class="sc-grREDI kWgEsm node state Choice" data-testid="graph-dbupload_Error_Check" data-state-id="dbupload_Error_Check" data-state-type="Choice"><g class="new-look-state-node "><rect x="-120" y="-24.5" width="240" height="49" rx="3" ry="3"/><g class="handle" transform="translate(-120,-24.5)"><path d="M5,16 L5,34 M8,16 L8,34"/></g><g class="icon" transform="translate(-104,-24)"><rect fill="var(--color-background-container-header-g9rg0j, #fafafa)" x="0.0361026108" y="0.0181291967" width="48" height="48"/><line x1="47.5" y1="0.49122807" x2="47.5" y2="47.5" stroke="var(--color-text-home-header-secondary-g5rqe4, #d5dbdb)" stroke-linecap="square"/><line x1="0.5" y1="0.49122807" x2="0.5" y2="47.5" stroke="var(--color-text-home-header-secondary-g5rqe4, #d5dbdb)" stroke-linecap="square"/><use href="#icon-flow-choice"/></g><g class="text-lines" transform="translate(-48,-24.5)"><text transform="translate(0,17)" class="line1"><tspan xml:space="preserve" text-anchor="start">Choice state</tspan></text><text transform="translate(0,35.5)" class="line2 label"><tspan xml:space="preserve" text-anchor="start">dbupload_Error_Check</tspan></text></g></g></g></g><g class="node-container" transform="translate(2634.75,1395)"><g class="sc-grREDI kWgEsm node state Task" data-testid="graph-trigger_error_check" data-state-id="trigger_error_check" data-state-type="Task"><g class="new-look-state-node "><rect x="-120" y="-24.5" width="240" height="49" rx="3" ry="3"/><g class="handle" transform="translate(-120,-24.5)"><path d="M5,16 L5,34 M8,16 L8,34"/></g><g class="icon" transform="translate(-104,-24)"><rect fill="var(--color-background-container-header-g9rg0j, #fafafa)" x="0.0361026108" y="0.0181291967" width="48" height="48"/><line x1="47.5" y1="0.49122807" x2="47.5" y2="47.5" stroke="var(--color-text-home-header-secondary-g5rqe4, #d5dbdb)" stroke-linecap="square"/><line x1="0.5" y1="0.49122807" x2="0.5" y2="47.5" stroke="var(--color-text-home-header-secondary-g5rqe4, #d5dbdb)" stroke-linecap="square"/><use href="#icon-service-batch"/></g><g class="text-lines" transform="translate(-48,-24.5)"><text transform="translate(0,17)" class="line1"><tspan xml:space="preserve" text-anchor="start">Batch: SubmitJob</tspan></text><text transform="translate(0,35.5)" class="line2 label"><tspan xml:space="preserve" text-anchor="start">trigger_error_check</tspan></text></g></g></g></g><g class="node-container" transform="translate(1609.75,556.5)"><g class="sc-grREDI kWgEsm node state Task" data-testid="graph-algo1" data-state-id="algo1" data-state-type="Task"><g class="new-look-state-node "><rect x="-120" y="-24.5" width="240" height="49" rx="3" ry="3"/><g class="handle" transform="translate(-120,-24.5)"><path d="M5,16 L5,34 M8,16 L8,34"/></g><g class="icon" transform="translate(-104,-24)"><rect fill="var(--color-background-container-header-g9rg0j, #fafafa)" x="0.0361026108" y="0.0181291967" width="48" height="48"/><line x1="47.5" y1="0.49122807" x2="47.5" y2="47.5" stroke="var(--color-text-home-header-secondary-g5rqe4, #d5dbdb)" stroke-linecap="square"/><line x1="0.5" y1="0.49122807" x2="0.5" y2="47.5" stroke="var(--color-text-home-header-secondary-g5rqe4, #d5dbdb)" stroke-linecap="square"/><use href="#icon-service-batch"/></g><g class="text-lines" transform="translate(-48,-24.5)"><text transform="translate(0,17)" class="line1"><tspan xml:space="preserve" text-anchor="start">Batch: SubmitJob</tspan></text><text transform="translate(0,35.5)" class="line2 label"><tspan xml:space="preserve" text-anchor="start">algo1</tspan></text></g></g></g></g><g class="node-container" transform="translate(2634.75,1495.5)"><g class="sc-grREDI kWgEsm node state Task" data-testid="graph-Notification:Job Failed after DB upload" data-state-id="Notification:Job Failed after DB upload" data-state-type="Task"><g class="new-look-state-node "><rect x="-164" y="-24.5" width="328" height="49" rx="3" ry="3"/><g class="handle" transform="translate(-164,-24.5)"><path d="M5,16 L5,34 M8,16 L8,34"/></g><g class="icon" transform="translate(-148,-24)"><rect fill="var(--color-background-container-header-g9rg0j, #fafafa)" x="0.0361026108" y="0.0181291967" width="48" height="48"/><line x1="47.5" y1="0.49122807" x2="47.5" y2="47.5" stroke="var(--color-text-home-header-secondary-g5rqe4, #d5dbdb)" stroke-linecap="square"/><line x1="0.5" y1="0.49122807" x2="0.5" y2="47.5" stroke="var(--color-text-home-header-secondary-g5rqe4, #d5dbdb)" stroke-linecap="square"/><use href="#icon-service-sns"/></g><g class="text-lines" transform="translate(-92,-24.5)"><text transform="translate(0,17)" class="line1"><tspan xml:space="preserve" text-anchor="start">SNS: Publish</tspan></text><text transform="translate(0,35.5)" class="line2 label"><tspan xml:space="preserve" text-anchor="start">Notification:Job Failed after DB upload</tspan></text></g></g></g></g><g class="node-container" transform="translate(1835.75,1579.5)"><g class="sc-grREDI kWgEsm node state Task" data-testid="graph-trigger_tar" data-state-id="trigger_tar" data-state-type="Task"><g class="new-look-state-node "><rect x="-120" y="-24.5" width="240" height="49" rx="3" ry="3"/><g class="handle" transform="translate(-120,-24.5)"><path d="M5,16 L5,34 M8,16 L8,34"/></g><g class="icon" transform="translate(-104,-24)"><rect fill="var(--color-background-container-header-g9rg0j, #fafafa)" x="0.0361026108" y="0.0181291967" width="48" height="48"/><line x1="47.5" y1="0.49122807" x2="47.5" y2="47.5" stroke="var(--color-text-home-header-secondary-g5rqe4, #d5dbdb)" stroke-linecap="square"/><line x1="0.5" y1="0.49122807" x2="0.5" y2="47.5" stroke="var(--color-text-home-header-secondary-g5rqe4, #d5dbdb)" stroke-linecap="square"/><use href="#icon-service-batch"/></g><g class="text-lines" transform="translate(-48,-24.5)"><text transform="translate(0,17)" class="line1"><tspan xml:space="preserve" text-anchor="start">Batch: SubmitJob</tspan></text><text transform="translate(0,35.5)" class="line2 label"><tspan xml:space="preserve" text-anchor="start">trigger_tar</tspan></text></g></g></g></g><g class="node-container" transform="translate(1609.75,640.5)"><g class="sc-grREDI kWgEsm node state Choice" data-testid="graph-Algo1 Error_Check" data-state-id="Algo1 Error_Check" data-state-type="Choice"><g class="new-look-state-node "><rect x="-120" y="-24.5" width="240" height="49" rx="3" ry="3"/><g class="handle" transform="translate(-120,-24.5)"><path d="M5,16 L5,34 M8,16 L8,34"/></g><g class="icon" transform="translate(-104,-24)"><rect fill="var(--color-background-container-header-g9rg0j, #fafafa)" x="0.0361026108" y="0.0181291967" width="48" height="48"/><line x1="47.5" y1="0.49122807" x2="47.5" y2="47.5" stroke="var(--color-text-home-header-secondary-g5rqe4, #d5dbdb)" stroke-linecap="square"/><line x1="0.5" y1="0.49122807" x2="0.5" y2="47.5" stroke="var(--color-text-home-header-secondary-g5rqe4, #d5dbdb)" stroke-linecap="square"/><use href="#icon-flow-choice"/></g><g class="text-lines" transform="translate(-48,-24.5)"><text transform="translate(0,17)" class="line1"><tspan xml:space="preserve" text-anchor="start">Choice state</tspan></text><text transform="translate(0,35.5)" class="line2 label"><tspan xml:space="preserve" text-anchor="start">Algo1 Error_Check</tspan></text></g></g></g></g><g class="node-container" transform="translate(1993.5,1395)"><g class="sc-grREDI kWgEsm node state Choice" data-testid="graph-Algo1 Error_Check-1" data-state-id="Algo1 Error_Check-1" data-state-type="Choice"><g class="new-look-state-node "><rect x="-120" y="-24.5" width="240" height="49" rx="3" ry="3"/><g class="handle" transform="translate(-120,-24.5)"><path d="M5,16 L5,34 M8,16 L8,34"/></g><g class="icon" transform="translate(-104,-24)"><rect fill="var(--color-background-container-header-g9rg0j, #fafafa)" x="0.0361026108" y="0.0181291967" width="48" height="48"/><line x1="47.5" y1="0.49122807" x2="47.5" y2="47.5" stroke="var(--color-text-home-header-secondary-g5rqe4, #d5dbdb)" stroke-linecap="square"/><line x1="0.5" y1="0.49122807" x2="0.5" y2="47.5" stroke="var(--color-text-home-header-secondary-g5rqe4, #d5dbdb)" stroke-linecap="square"/><use href="#icon-flow-choice"/></g><g class="text-lines" transform="translate(-48,-24.5)"><text transform="translate(0,17)" class="line1"><tspan xml:space="preserve" text-anchor="start">Choice state</tspan></text><text transform="translate(0,35.5)" class="line2 label"><tspan xml:space="preserve" text-anchor="start">Algo1 Error_Check-1</tspan></text></g></g></g></g><g class="node-container" transform="translate(1456.25,741)"><g class="sc-grREDI kWgEsm node state Task" data-testid="graph-logic" data-state-id="logic" data-state-type="Task"><g class="new-look-state-node "><rect x="-120" y="-24.5" width="240" height="49" rx="3" ry="3"/><g class="handle" transform="translate(-120,-24.5)"><path d="M5,16 L5,34 M8,16 L8,34"/></g><g class="icon" transform="translate(-104,-24)"><rect fill="var(--color-background-container-header-g9rg0j, #fafafa)" x="0.0361026108" y="0.0181291967" width="48" height="48"/><line x1="47.5" y1="0.49122807" x2="47.5" y2="47.5" stroke="var(--color-text-home-header-secondary-g5rqe4, #d5dbdb)" stroke-linecap="square"/><line x1="0.5" y1="0.49122807" x2="0.5" y2="47.5" stroke="var(--color-text-home-header-secondary-g5rqe4, #d5dbdb)" stroke-linecap="square"/><use href="#icon-service-batch"/></g><g class="text-lines" transform="translate(-48,-24.5)"><text transform="translate(0,17)" class="line1"><tspan xml:space="preserve" text-anchor="start">Batch: SubmitJob</tspan></text><text transform="translate(0,35.5)" class="line2 label"><tspan xml:space="preserve" text-anchor="start">logic</tspan></text></g></g></g></g><g class="node-container" transform="translate(2296.25,1495.5)"><g class="sc-grREDI kWgEsm node state Task" data-testid="graph-Notification:Algo1 Exit Code1" data-state-id="Notification:Algo1 Exit Code1" data-state-type="Task"><g class="new-look-state-node "><rect x="-134.5" y="-24.5" width="269" height="49" rx="3" ry="3"/><g class="handle" transform="translate(-134.5,-24.5)"><path d="M5,16 L5,34 M8,16 L8,34"/></g><g class="icon" transform="translate(-118.5,-24)"><rect fill="var(--color-background-container-header-g9rg0j, #fafafa)" x="0.0361026108" y="0.0181291967" width="48" height="48"/><line x1="47.5" y1="0.49122807" x2="47.5" y2="47.5" stroke="var(--color-text-home-header-secondary-g5rqe4, #d5dbdb)" stroke-linecap="square"/><line x1="0.5" y1="0.49122807" x2="0.5" y2="47.5" stroke="var(--color-text-home-header-secondary-g5rqe4, #d5dbdb)" stroke-linecap="square"/><use href="#icon-service-sns"/></g><g class="text-lines" transform="translate(-62.5,-24.5)"><text transform="translate(0,17)" class="line1"><tspan xml:space="preserve" text-anchor="start">SNS: Publish</tspan></text><text transform="translate(0,35.5)" class="line2 label"><tspan xml:space="preserve" text-anchor="start">Notification:Algo1 Exit Code1</tspan></text></g></g></g></g><g class="node-container" transform="translate(1078,1495.5)"><g class="sc-grREDI kWgEsm node state Pass" data-testid="graph-family_processed_check" data-state-id="family_processed_check" data-state-type="Pass"><g class="new-look-state-node "><rect x="-120" y="-24.5" width="240" height="49" rx="3" ry="3"/><g class="handle" transform="translate(-120,-24.5)"><path d="M5,16 L5,34 M8,16 L8,34"/></g><g class="icon" transform="translate(-104,-24)"><rect fill="var(--color-background-container-header-g9rg0j, #fafafa)" x="0.0361026108" y="0.0181291967" width="48" height="48"/><line x1="47.5" y1="0.49122807" x2="47.5" y2="47.5" stroke="var(--color-text-home-header-secondary-g5rqe4, #d5dbdb)" stroke-linecap="square"/><line x1="0.5" y1="0.49122807" x2="0.5" y2="47.5" stroke="var(--color-text-home-header-secondary-g5rqe4, #d5dbdb)" stroke-linecap="square"/><use href="#icon-flow-pass"/></g><g class="text-lines" transform="translate(-48,-24.5)"><text transform="translate(0,17)" class="line1"><tspan xml:space="preserve" text-anchor="start">Pass state</tspan></text><text transform="translate(0,35.5)" class="line2 label"><tspan xml:space="preserve" text-anchor="start">family_processed_check</tspan></text></g></g></g></g><g class="node-container" transform="translate(922.5,1661)"><g><circle class="sc-brCFrO cqORIG shape" r="22"/><text class="sc-dFdIVH edvWgW label"><tspan xml:space="preserve" text-anchor="middle" alignment-baseline="central">End</tspan></text></g></g><g class="node-container" transform="translate(1456.25,841.5)"><g class="sc-grREDI kWgEsm node state Choice" data-testid="graph-Newton Error_Check" data-state-id="Newton Error_Check" data-state-type="Choice"><g class="new-look-state-node "><rect x="-120" y="-24.5" width="240" height="49" rx="3" ry="3"/><g class="handle" transform="translate(-120,-24.5)"><path d="M5,16 L5,34 M8,16 L8,34"/></g><g class="icon" transform="translate(-104,-24)"><rect fill="var(--color-background-container-header-g9rg0j, #fafafa)" x="0.0361026108" y="0.0181291967" width="48" height="48"/><line x1="47.5" y1="0.49122807" x2="47.5" y2="47.5" stroke="var(--color-text-home-header-secondary-g5rqe4, #d5dbdb)" stroke-linecap="square"/><line x1="0.5" y1="0.49122807" x2="0.5" y2="47.5" stroke="var(--color-text-home-header-secondary-g5rqe4, #d5dbdb)" stroke-linecap="square"/><use href="#icon-flow-choice"/></g><g class="text-lines" transform="translate(-48,-24.5)"><text transform="translate(0,17)" class="line1"><tspan xml:space="preserve" text-anchor="start">Choice state</tspan></text><text transform="translate(0,35.5)" class="line2 label"><tspan xml:space="preserve" text-anchor="start">Newton Error_Check</tspan></text></g></g></g></g><g class="node-container" transform="translate(1686.5,1395)"><g class="sc-grREDI kWgEsm node state Choice" data-testid="graph-Newton Error_Check-1" data-state-id="Newton Error_Check-1" data-state-type="Choice"><g class="new-look-state-node "><rect x="-120" y="-24.5" width="240" height="49" rx="3" ry="3"/><g class="handle" transform="translate(-120,-24.5)"><path d="M5,16 L5,34 M8,16 L8,34"/></g><g class="icon" transform="translate(-104,-24)"><rect fill="var(--color-background-container-header-g9rg0j, #fafafa)" x="0.0361026108" y="0.0181291967" width="48" height="48"/><line x1="47.5" y1="0.49122807" x2="47.5" y2="47.5" stroke="var(--color-text-home-header-secondary-g5rqe4, #d5dbdb)" stroke-linecap="square"/><line x1="0.5" y1="0.49122807" x2="0.5" y2="47.5" stroke="var(--color-text-home-header-secondary-g5rqe4, #d5dbdb)" stroke-linecap="square"/><use href="#icon-flow-choice"/></g><g class="text-lines" transform="translate(-48,-24.5)"><text transform="translate(0,17)" class="line1"><tspan xml:space="preserve" text-anchor="start">Choice state</tspan></text><text transform="translate(0,35.5)" class="line2 label"><tspan xml:space="preserve" text-anchor="start">Newton Error_Check-1</tspan></text></g></g></g></g><g class="node-container" transform="translate(1302.75,942)"><g class="sc-grREDI kWgEsm node state Task" data-testid="graph-algo2" data-state-id="algo2" data-state-type="Task"><g class="new-look-state-node "><rect x="-120" y="-24.5" width="240" height="49" rx="3" ry="3"/><g class="handle" transform="translate(-120,-24.5)"><path d="M5,16 L5,34 M8,16 L8,34"/></g><g class="icon" transform="translate(-104,-24)"><rect fill="var(--color-background-container-header-g9rg0j, #fafafa)" x="0.0361026108" y="0.0181291967" width="48" height="48"/><line x1="47.5" y1="0.49122807" x2="47.5" y2="47.5" stroke="var(--color-text-home-header-secondary-g5rqe4, #d5dbdb)" stroke-linecap="square"/><line x1="0.5" y1="0.49122807" x2="0.5" y2="47.5" stroke="var(--color-text-home-header-secondary-g5rqe4, #d5dbdb)" stroke-linecap="square"/><use href="#icon-service-batch"/></g><g class="text-lines" transform="translate(-48,-24.5)"><text transform="translate(0,17)" class="line1"><tspan xml:space="preserve" text-anchor="start">Batch: SubmitJob</tspan></text><text transform="translate(0,35.5)" class="line2 label"><tspan xml:space="preserve" text-anchor="start">algo2</tspan></text></g></g></g></g><g class="node-container" transform="translate(1989.25,1495.5)"><g class="sc-grREDI kWgEsm node state Task" data-testid="graph-Notification:Logic Exit Code1" data-state-id="Notification:Logic Exit Code1" data-state-type="Task"><g class="new-look-state-node "><rect x="-132.5" y="-24.5" width="265" height="49" rx="3" ry="3"/><g class="handle" transform="translate(-132.5,-24.5)"><path d="M5,16 L5,34 M8,16 L8,34"/></g><g class="icon" transform="translate(-116.5,-24)"><rect fill="var(--color-background-container-header-g9rg0j, #fafafa)" x="0.0361026108" y="0.0181291967" width="48" height="48"/><line x1="47.5" y1="0.49122807" x2="47.5" y2="47.5" stroke="var(--color-text-home-header-secondary-g5rqe4, #d5dbdb)" stroke-linecap="square"/><line x1="0.5" y1="0.49122807" x2="0.5" y2="47.5" stroke="var(--color-text-home-header-secondary-g5rqe4, #d5dbdb)" stroke-linecap="square"/><use href="#icon-service-sns"/></g><g class="text-lines" transform="translate(-60.5,-24.5)"><text transform="translate(0,17)" class="line1"><tspan xml:space="preserve" text-anchor="start">SNS: Publish</tspan></text><text transform="translate(0,35.5)" class="line2 label"><tspan xml:space="preserve" text-anchor="start">Notification:Logic Exit Code1</tspan></text></g></g></g></g><g class="node-container" transform="translate(1302.75,1026)"><g class="sc-grREDI kWgEsm node state Choice" data-testid="graph-Algo2 Error_Check" data-state-id="Algo2 Error_Check" data-state-type="Choice"><g class="new-look-state-node "><rect x="-120" y="-24.5" width="240" height="49" rx="3" ry="3"/><g class="handle" transform="translate(-120,-24.5)"><path d="M5,16 L5,34 M8,16 L8,34"/></g><g class="icon" transform="translate(-104,-24)"><rect fill="var(--color-background-container-header-g9rg0j, #fafafa)" x="0.0361026108" y="0.0181291967" width="48" height="48"/><line x1="47.5" y1="0.49122807" x2="47.5" y2="47.5" stroke="var(--color-text-home-header-secondary-g5rqe4, #d5dbdb)" stroke-linecap="square"/><line x1="0.5" y1="0.49122807" x2="0.5" y2="47.5" stroke="var(--color-text-home-header-secondary-g5rqe4, #d5dbdb)" stroke-linecap="square"/><use href="#icon-flow-choice"/></g><g class="text-lines" transform="translate(-48,-24.5)"><text transform="translate(0,17)" class="line1"><tspan xml:space="preserve" text-anchor="start">Choice state</tspan></text><text transform="translate(0,35.5)" class="line2 label"><tspan xml:space="preserve" text-anchor="start">Algo2 Error_Check</tspan></text></g></g></g></g><g class="node-container" transform="translate(1379.5,1395)"><g class="sc-grREDI kWgEsm node state Choice" data-testid="graph-Algo2 Error_Check-1" data-state-id="Algo2 Error_Check-1" data-state-type="Choice"><g class="new-look-state-node "><rect x="-120" y="-24.5" width="240" height="49" rx="3" ry="3"/><g class="handle" transform="translate(-120,-24.5)"><path d="M5,16 L5,34 M8,16 L8,34"/></g><g class="icon" transform="translate(-104,-24)"><rect fill="var(--color-background-container-header-g9rg0j, #fafafa)" x="0.0361026108" y="0.0181291967" width="48" height="48"/><line x1="47.5" y1="0.49122807" x2="47.5" y2="47.5" stroke="var(--color-text-home-header-secondary-g5rqe4, #d5dbdb)" stroke-linecap="square"/><line x1="0.5" y1="0.49122807" x2="0.5" y2="47.5" stroke="var(--color-text-home-header-secondary-g5rqe4, #d5dbdb)" stroke-linecap="square"/><use href="#icon-flow-choice"/></g><g class="text-lines" transform="translate(-48,-24.5)"><text transform="translate(0,17)" class="line1"><tspan xml:space="preserve" text-anchor="start">Choice state</tspan></text><text transform="translate(0,35.5)" class="line2 label"><tspan xml:space="preserve" text-anchor="start">Algo2 Error_Check-1</tspan></text></g></g></g></g><g class="node-container" transform="translate(1041,1126.5)"><g class="sc-grREDI kWgEsm node state Task" data-testid="graph-calc" data-state-id="calc" data-state-type="Task"><g class="new-look-state-node "><rect x="-120" y="-24.5" width="240" height="49" rx="3" ry="3"/><g class="handle" transform="translate(-120,-24.5)"><path d="M5,16 L5,34 M8,16 L8,34"/></g><g class="icon" transform="translate(-104,-24)"><rect fill="var(--color-background-container-header-g9rg0j, #fafafa)" x="0.0361026108" y="0.0181291967" width="48" height="48"/><line x1="47.5" y1="0.49122807" x2="47.5" y2="47.5" stroke="var(--color-text-home-header-secondary-g5rqe4, #d5dbdb)" stroke-linecap="square"/><line x1="0.5" y1="0.49122807" x2="0.5" y2="47.5" stroke="var(--color-text-home-header-secondary-g5rqe4, #d5dbdb)" stroke-linecap="square"/><use href="#icon-service-batch"/></g><g class="text-lines" transform="translate(-48,-24.5)"><text transform="translate(0,17)" class="line1"><tspan xml:space="preserve" text-anchor="start">Batch: SubmitJob</tspan></text><text transform="translate(0,35.5)" class="line2 label"><tspan xml:space="preserve" text-anchor="start">calc</tspan></text></g></g></g></g><g class="node-container" transform="translate(1682.25,1495.5)"><g class="sc-grREDI kWgEsm node state Task" data-testid="graph-Notification:Algo2 Exit Code1" data-state-id="Notification:Algo2 Exit Code1" data-state-type="Task"><g class="new-look-state-node "><rect x="-134.5" y="-24.5" width="269" height="49" rx="3" ry="3"/><g class="handle" transform="translate(-134.5,-24.5)"><path d="M5,16 L5,34 M8,16 L8,34"/></g><g class="icon" transform="translate(-118.5,-24)"><rect fill="var(--color-background-container-header-g9rg0j, #fafafa)" x="0.0361026108" y="0.0181291967" width="48" height="48"/><line x1="47.5" y1="0.49122807" x2="47.5" y2="47.5" stroke="var(--color-text-home-header-secondary-g5rqe4, #d5dbdb)" stroke-linecap="square"/><line x1="0.5" y1="0.49122807" x2="0.5" y2="47.5" stroke="var(--color-text-home-header-secondary-g5rqe4, #d5dbdb)" stroke-linecap="square"/><use href="#icon-service-sns"/></g><g class="text-lines" transform="translate(-62.5,-24.5)"><text transform="translate(0,17)" class="line1"><tspan xml:space="preserve" text-anchor="start">SNS: Publish</tspan></text><text transform="translate(0,35.5)" class="line2 label"><tspan xml:space="preserve" text-anchor="start">Notification:Algo2 Exit Code1</tspan></text></g></g></g></g><g class="node-container" transform="translate(1041,1210.5)"><g class="sc-grREDI kWgEsm node state Choice" data-testid="graph-Cal Error_Check" data-state-id="Cal Error_Check" data-state-type="Choice"><g class="new-look-state-node "><rect x="-120" y="-24.5" width="240" height="49" rx="3" ry="3"/><g class="handle" transform="translate(-120,-24.5)"><path d="M5,16 L5,34 M8,16 L8,34"/></g><g class="icon" transform="translate(-104,-24)"><rect fill="var(--color-background-container-header-g9rg0j, #fafafa)" x="0.0361026108" y="0.0181291967" width="48" height="48"/><line x1="47.5" y1="0.49122807" x2="47.5" y2="47.5" stroke="var(--color-text-home-header-secondary-g5rqe4, #d5dbdb)" stroke-linecap="square"/><line x1="0.5" y1="0.49122807" x2="0.5" y2="47.5" stroke="var(--color-text-home-header-secondary-g5rqe4, #d5dbdb)" stroke-linecap="square"/><use href="#icon-flow-choice"/></g><g class="text-lines" transform="translate(-48,-24.5)"><text transform="translate(0,17)" class="line1"><tspan xml:space="preserve" text-anchor="start">Choice state</tspan></text><text transform="translate(0,35.5)" class="line2 label"><tspan xml:space="preserve" text-anchor="start">Cal Error_Check</tspan></text></g></g></g></g><g class="node-container" transform="translate(1041,1395)"><g class="sc-grREDI kWgEsm node state Choice" data-testid="graph-Cal Error_Check-1" data-state-id="Cal Error_Check-1" data-state-type="Choice"><g class="new-look-state-node "><rect x="-120" y="-24.5" width="240" height="49" rx="3" ry="3"/><g class="handle" transform="translate(-120,-24.5)"><path d="M5,16 L5,34 M8,16 L8,34"/></g><g class="icon" transform="translate(-104,-24)"><rect fill="var(--color-background-container-header-g9rg0j, #fafafa)" x="0.0361026108" y="0.0181291967" width="48" height="48"/><line x1="47.5" y1="0.49122807" x2="47.5" y2="47.5" stroke="var(--color-text-home-header-secondary-g5rqe4, #d5dbdb)" stroke-linecap="square"/><line x1="0.5" y1="0.49122807" x2="0.5" y2="47.5" stroke="var(--color-text-home-header-secondary-g5rqe4, #d5dbdb)" stroke-linecap="square"/><use href="#icon-flow-choice"/></g><g class="text-lines" transform="translate(-48,-24.5)"><text transform="translate(0,17)" class="line1"><tspan xml:space="preserve" text-anchor="start">Choice state</tspan></text><text transform="translate(0,35.5)" class="line2 label"><tspan xml:space="preserve" text-anchor="start">Cal Error_Check-1</tspan></text></g></g></g></g><g class="node-container" transform="translate(485,1311)"><g class="sc-grREDI kWgEsm node state Task" data-testid="graph-hub" data-state-id="hub" data-state-type="Task"><g class="new-look-state-node "><rect x="-120" y="-24.5" width="240" height="49" rx="3" ry="3"/><g class="handle" transform="translate(-120,-24.5)"><path d="M5,16 L5,34 M8,16 L8,34"/></g><g class="icon" transform="translate(-104,-24)"><rect fill="var(--color-background-container-header-g9rg0j, #fafafa)" x="0.0361026108" y="0.0181291967" width="48" height="48"/><line x1="47.5" y1="0.49122807" x2="47.5" y2="47.5" stroke="var(--color-text-home-header-secondary-g5rqe4, #d5dbdb)" stroke-linecap="square"/><line x1="0.5" y1="0.49122807" x2="0.5" y2="47.5" stroke="var(--color-text-home-header-secondary-g5rqe4, #d5dbdb)" stroke-linecap="square"/><use href="#icon-service-batch"/></g><g class="text-lines" transform="translate(-48,-24.5)"><text transform="translate(0,17)" class="line1"><tspan xml:space="preserve" text-anchor="start">Batch: SubmitJob</tspan></text><text transform="translate(0,35.5)" class="line2 label"><tspan xml:space="preserve" text-anchor="start">hub</tspan></text></g></g></g></g><g class="node-container" transform="translate(782,1495.5)"><g class="sc-grREDI kWgEsm node state Task" data-testid="graph-Notification:Calc Exit Code1" data-state-id="Notification:Calc Exit Code1" data-state-type="Task"><g class="new-look-state-node "><rect x="-129" y="-24.5" width="258" height="49" rx="3" ry="3"/><g class="handle" transform="translate(-129,-24.5)"><path d="M5,16 L5,34 M8,16 L8,34"/></g><g class="icon" transform="translate(-113,-24)"><rect fill="var(--color-background-container-header-g9rg0j, #fafafa)" x="0.0361026108" y="0.0181291967" width="48" height="48"/><line x1="47.5" y1="0.49122807" x2="47.5" y2="47.5" stroke="var(--color-text-home-header-secondary-g5rqe4, #d5dbdb)" stroke-linecap="square"/><line x1="0.5" y1="0.49122807" x2="0.5" y2="47.5" stroke="var(--color-text-home-header-secondary-g5rqe4, #d5dbdb)" stroke-linecap="square"/><use href="#icon-service-sns"/></g><g class="text-lines" transform="translate(-57,-24.5)"><text transform="translate(0,17)" class="line1"><tspan xml:space="preserve" text-anchor="start">SNS: Publish</tspan></text><text transform="translate(0,35.5)" class="line2 label"><tspan xml:space="preserve" text-anchor="start">Notification:Calc Exit Code1</tspan></text></g></g></g></g><g class="node-container" transform="translate(485,1395)"><g class="sc-grREDI kWgEsm node state Choice" data-testid="graph-Wltphub Error_Check" data-state-id="Wltphub Error_Check" data-state-type="Choice"><g class="new-look-state-node "><rect x="-120" y="-24.5" width="240" height="49" rx="3" ry="3"/><g class="handle" transform="translate(-120,-24.5)"><path d="M5,16 L5,34 M8,16 L8,34"/></g><g class="icon" transform="translate(-104,-24)"><rect fill="var(--color-background-container-header-g9rg0j, #fafafa)" x="0.0361026108" y="0.0181291967" width="48" height="48"/><line x1="47.5" y1="0.49122807" x2="47.5" y2="47.5" stroke="var(--color-text-home-header-secondary-g5rqe4, #d5dbdb)" stroke-linecap="square"/><line x1="0.5" y1="0.49122807" x2="0.5" y2="47.5" stroke="var(--color-text-home-header-secondary-g5rqe4, #d5dbdb)" stroke-linecap="square"/><use href="#icon-flow-choice"/></g><g class="text-lines" transform="translate(-48,-24.5)"><text transform="translate(0,17)" class="line1"><tspan xml:space="preserve" text-anchor="start">Choice state</tspan></text><text transform="translate(0,35.5)" class="line2 label"><tspan xml:space="preserve" text-anchor="start">Wltphub Error_Check</tspan></text></g></g></g></g><g class="node-container" transform="translate(485,1495.5)"><g class="sc-grREDI kWgEsm node state Task" data-testid="graph-Notification:hub Exit Code1" data-state-id="Notification:hub Exit Code1" data-state-type="Task"><g class="new-look-state-node "><rect x="-128" y="-24.5" width="256" height="49" rx="3" ry="3"/><g class="handle" transform="translate(-128,-24.5)"><path d="M5,16 L5,34 M8,16 L8,34"/></g><g class="icon" transform="translate(-112,-24)"><rect fill="var(--color-background-container-header-g9rg0j, #fafafa)" x="0.0361026108" y="0.0181291967" width="48" height="48"/><line x1="47.5" y1="0.49122807" x2="47.5" y2="47.5" stroke="var(--color-text-home-header-secondary-g5rqe4, #d5dbdb)" stroke-linecap="square"/><line x1="0.5" y1="0.49122807" x2="0.5" y2="47.5" stroke="var(--color-text-home-header-secondary-g5rqe4, #d5dbdb)" stroke-linecap="square"/><use href="#icon-service-sns"/></g><g class="text-lines" transform="translate(-56,-24.5)"><text transform="translate(0,17)" class="line1"><tspan xml:space="preserve" text-anchor="start">SNS: Publish</tspan></text><text transform="translate(0,35.5)" class="line2 label"><tspan xml:space="preserve" text-anchor="start">Notification:hub Exit Code1</tspan></text></g></g></g></g></g><g class="edges"><g class="sc-bWXABl gjBxyu edge"><path id="state-trigger_family_present:state-Notification:Job Failure raise Incident:choiceRule:0" d="M1125.25,109.04865424430642L964.125,116.498878536922C803,123.94910282953761,480.75,138.8495514147688,319.625,154.67477570738438C158.5,170.5,158.5,187.25,158.5,202.625C158.5,218,158.5,232,158.5,246C158.5,260,158.5,274,158.5,288C158.5,302,158.5,316,158.5,330C158.5,344,158.5,358,158.5,372C158.5,386,158.5,400,158.5,414C158.5,428,158.5,442,158.5,457.375C158.5,472.75,158.5,489.5,158.5,506.25C158.5,523,158.5,539.75,158.5,555.125C158.5,570.5,158.5,584.5,158.5,598.5C158.5,612.5,158.5,626.5,158.5,641.875C158.5,657.25,158.5,674,158.5,690.75C158.5,707.5,158.5,724.25,158.5,741C158.5,757.75,158.5,774.5,158.5,791.25C158.5,808,158.5,824.75,158.5,841.5C158.5,858.25,158.5,875,158.5,891.75C158.5,908.5,158.5,925.25,158.5,940.625C158.5,956,158.5,970,158.5,984C158.5,998,158.5,1012,158.5,1027.375C158.5,1042.75,158.5,1059.5,158.5,1076.25C158.5,1093,158.5,1109.75,158.5,1125.125C158.5,1140.5,158.5,1154.5,158.5,1168.5C158.5,1182.5,158.5,1196.5,158.5,1211.875C158.5,1227.25,158.5,1244,158.5,1260.75C158.5,1277.5,158.5,1294.25,158.5,1309.625C158.5,1325,158.5,1339,158.5,1353C158.5,1367,158.5,1381,158.5,1396.375C158.5,1411.75,158.5,1428.5,158.5,1441.1666666666667C158.5,1453.8333333333333,158.5,1462.4166666666667,158.5,1466.7083333333333L158.5,1471" marker-end="url(#arrowhead)" fill="none"/><g data-testid="graph-trigger_family_present-0" class="edge-label" transform="translate(319.625,154.67477570738438)"><rect x="-22" y="-8.25" width="44" height="16.5" class="sc-evrZIY jFsCNC"/><text class="sc-fIavCj eLRtqJ label"><tspan xml:space="preserve" text-anchor="middle" alignment-baseline="central">Rule #1</tspan><title>Rule #1</title></text></g></g><g class="sc-bWXABl gjBxyu edge"><path id="state-trigger_family_present:state-trigger_family_remove:choiceDefault" d="M1365.25,116.71643835616439L1421.2916666666667,122.888698630137C1477.3333333333333,129.06095890410958,1589.4166666666667,141.4054794520548,1645.4583333333333,151.86940639269406C1701.5,162.33333333333334,1701.5,170.91666666666666,1701.5,175.20833333333334L1701.5,179.5" marker-end="url(#arrowhead)" fill="none"/><g data-testid="graph-trigger_family_present-Default" class="edge-label" transform="translate(1645.4583333333333,151.86940639269406)"><rect x="-22" y="-8.25" width="44" height="16.5" class="sc-evrZIY jFsCNC"/><text class="sc-fIavCj eLRtqJ label"><tspan xml:space="preserve" text-anchor="middle" alignment-baseline="central">Default</tspan><title>Default</title></text></g></g><g class="sc-bWXABl gjBxyu edge"><path id="start:state-trigger_family_present" d="M1245.25,44L1245.25,46.916666666666664C1245.25,49.833333333333336,1245.25,55.666666666666664,1245.25,61.5C1245.25,67.33333333333333,1245.25,73.16666666666667,1245.25,76.08333333333333L1245.25,79" marker-end="url(#arrowhead)" fill="none"/></g><g class="sc-bWXABl gjBxyu edge"><path id="state-Notification:Job Failure raise Incident:state-Fail:normal" d="M158.5,1520L158.5,1522.9166666666667C158.5,1525.8333333333333,158.5,1531.6666666666667,158.5,1537.5C158.5,1543.3333333333333,158.5,1549.1666666666667,158.5,1552.0833333333333L158.5,1555" marker-end="url(#arrowhead)" fill="none"/></g><g class="sc-bWXABl gjBxyu edge"><path id="state-trigger_family_remove:state-family_file_list:normal" d="M1701.5,228.5L1701.5,231.41666666666666C1701.5,234.33333333333334,1701.5,240.16666666666666,1701.5,246C1701.5,251.83333333333334,1701.5,257.6666666666667,1701.5,260.5833333333333L1701.5,263.5" marker-end="url(#arrowhead)" fill="none"/></g><g class="sc-bWXABl gjBxyu edge"><path id="state-family_file_list:state-dbupload:normal" d="M1746.7083333333333,312.5L1752.0902777777776,315.4166666666667C1757.472222222222,318.3333333333333,1768.236111111111,324.1666666666667,1773.6180555555557,330C1779,335.8333333333333,1779,341.6666666666667,1779,344.5833333333333L1779,347.5" marker-end="url(#arrowhead)" fill="none"/></g><g class="sc-bWXABl gjBxyu edge"><path id="state-dbupload:state-dbupload_Error_Check:normal" d="M1779,396.5L1779,399.4166666666667C1779,402.3333333333333,1779,408.1666666666667,1779,414C1779,419.8333333333333,1779,425.6666666666667,1779,428.5833333333333L1779,431.5" marker-end="url(#arrowhead)" fill="none"/></g><g class="sc-bWXABl gjBxyu edge"><path id="state-dbupload_Error_Check:state-trigger_error_check:choiceRule:0" d="M1899,463.0464504820333L2021.625,470.24704206836105C2144.25,477.4476336546889,2389.5,491.8488168273445,2512.125,507.4244084136722C2634.75,523,2634.75,539.75,2634.75,555.125C2634.75,570.5,2634.75,584.5,2634.75,598.5C2634.75,612.5,2634.75,626.5,2634.75,641.875C2634.75,657.25,2634.75,674,2634.75,690.75C2634.75,707.5,2634.75,724.25,2634.75,741C2634.75,757.75,2634.75,774.5,2634.75,791.25C2634.75,808,2634.75,824.75,2634.75,841.5C2634.75,858.25,2634.75,875,2634.75,891.75C2634.75,908.5,2634.75,925.25,2634.75,940.625C2634.75,956,2634.75,970,2634.75,984C2634.75,998,2634.75,1012,2634.75,1027.375C2634.75,1042.75,2634.75,1059.5,2634.75,1076.25C2634.75,1093,2634.75,1109.75,2634.75,1125.125C2634.75,1140.5,2634.75,1154.5,2634.75,1168.5C2634.75,1182.5,2634.75,1196.5,2634.75,1211.875C2634.75,1227.25,2634.75,1244,2634.75,1260.75C2634.75,1277.5,2634.75,1294.25,2634.75,1309.625C2634.75,1325,2634.75,1339,2634.75,1348.9166666666667C2634.75,1358.8333333333333,2634.75,1364.6666666666667,2634.75,1367.5833333333333L2634.75,1370.5" marker-end="url(#arrowhead)" fill="none"/><g data-testid="graph-dbupload_Error_Check-0" class="edge-label" transform="translate(2512.125,507.4244084136722)"><rect x="-22" y="-8.25" width="44" height="16.5" class="sc-evrZIY jFsCNC"/><text class="sc-fIavCj eLRtqJ label"><tspan xml:space="preserve" text-anchor="middle" alignment-baseline="central">Rule #1</tspan><title>Rule #1</title></text></g></g><g class="sc-bWXABl gjBxyu edge"><path id="state-dbupload_Error_Check:state-algo1:choiceDefault" d="M1696.4800995024875,480.5L1682.0250829187396,484.7916666666667C1667.5700663349917,489.0833333333333,1638.6600331674956,497.6666666666667,1624.205016583748,506.25C1609.75,514.8333333333334,1609.75,523.4166666666666,1609.75,527.7083333333334L1609.75,532" marker-end="url(#arrowhead)" fill="none"/><g data-testid="graph-dbupload_Error_Check-Default" class="edge-label" transform="translate(1624.205016583748,506.25)"><rect x="-22" y="-8.25" width="44" height="16.5" class="sc-evrZIY jFsCNC"/><text class="sc-fIavCj eLRtqJ label"><tspan xml:space="preserve" text-anchor="middle" alignment-baseline="central">Default</tspan><title>Default</title></text></g></g><g class="sc-bWXABl gjBxyu edge"><path id="state-trigger_error_check:state-Notification:Job Failed after DB upload:normal" d="M2634.75,1419.5L2634.75,1423.7916666666667C2634.75,1428.0833333333333,2634.75,1436.6666666666667,2634.75,1445.25C2634.75,1453.8333333333333,2634.75,1462.4166666666667,2634.75,1466.7083333333333L2634.75,1471" marker-end="url(#arrowhead)" fill="none"/></g><g class="sc-bWXABl gjBxyu edge"><path id="state-Notification:Job Failed after DB upload:state-trigger_tar:normal" d="M2634.75,1520L2634.75,1522.9166666666667C2634.75,1525.8333333333333,2634.75,1531.6666666666667,2521.5833333333335,1540.5320191906549C2408.4166666666665,1549.3973717146434,2182.0833333333335,1561.2947434292867,2068.9166666666665,1567.2434292866083L1955.75,1573.1921151439299" marker-end="url(#arrowhead)" fill="none"/></g><g class="sc-bWXABl gjBxyu edge"><path id="state-algo1:state-Algo1 Error_Check:normal" d="M1609.75,581L1609.75,583.9166666666666C1609.75,586.8333333333334,1609.75,592.6666666666666,1609.75,598.5C1609.75,604.3333333333334,1609.75,610.1666666666666,1609.75,613.0833333333334L1609.75,616" marker-end="url(#arrowhead)" fill="none"/></g><g class="sc-bWXABl gjBxyu edge"><path id="state-Algo1 Error_Check:state-Algo1 Error_Check-1:choiceRule:0" d="M1729.75,656.21335504886L1773.7083333333333,661.9694625407166C1817.6666666666667,667.7255700325733,1905.5833333333333,679.2377850162867,1949.5416666666667,693.3688925081433C1993.5,707.5,1993.5,724.25,1993.5,741C1993.5,757.75,1993.5,774.5,1993.5,791.25C1993.5,808,1993.5,824.75,1993.5,841.5C1993.5,858.25,1993.5,875,1993.5,891.75C1993.5,908.5,1993.5,925.25,1993.5,940.625C1993.5,956,1993.5,970,1993.5,984C1993.5,998,1993.5,1012,1993.5,1027.375C1993.5,1042.75,1993.5,1059.5,1993.5,1076.25C1993.5,1093,1993.5,1109.75,1993.5,1125.125C1993.5,1140.5,1993.5,1154.5,1993.5,1168.5C1993.5,1182.5,1993.5,1196.5,1993.5,1211.875C1993.5,1227.25,1993.5,1244,1993.5,1260.75C1993.5,1277.5,1993.5,1294.25,1993.5,1309.625C1993.5,1325,1993.5,1339,1993.5,1348.9166666666667C1993.5,1358.8333333333333,1993.5,1364.6666666666667,1993.5,1367.5833333333333L1993.5,1370.5" marker-end="url(#arrowhead)" fill="none"/><g data-testid="graph-Algo1 Error_Check-0" class="edge-label" transform="translate(1949.5416666666667,693.3688925081433)"><rect x="-22" y="-8.25" width="44" height="16.5" class="sc-evrZIY jFsCNC"/><text class="sc-fIavCj eLRtqJ label"><tspan xml:space="preserve" text-anchor="middle" alignment-baseline="central">Rule #1</tspan><title>Rule #1</title></text></g></g><g class="sc-bWXABl gjBxyu edge"><path id="state-Algo1 Error_Check:state-logic:choiceDefault" d="M1534.9092039800994,665L1521.799336650083,669.2916666666666C1508.6894693200663,673.5833333333334,1482.4697346600333,682.1666666666666,1469.3598673300166,690.75C1456.25,699.3333333333334,1456.25,707.9166666666666,1456.25,712.2083333333334L1456.25,716.5" marker-end="url(#arrowhead)" fill="none"/><g data-testid="graph-Algo1 Error_Check-Default" class="edge-label" transform="translate(1469.3598673300166,690.75)"><rect x="-22" y="-8.25" width="44" height="16.5" class="sc-evrZIY jFsCNC"/><text class="sc-fIavCj eLRtqJ label"><tspan xml:space="preserve" text-anchor="middle" alignment-baseline="central">Default</tspan><title>Default</title></text></g></g><g class="sc-bWXABl gjBxyu edge"><path id="state-Algo1 Error_Check-1:state-Notification:Algo1 Exit Code1:choiceRule:0" d="M2113.5,1414.9174236168456L2143.9583333333335,1419.972853014038C2174.4166666666665,1425.0282824112303,2235.3333333333335,1435.1391412056153,2265.7916666666665,1444.4862372694743C2296.25,1453.8333333333333,2296.25,1462.4166666666667,2296.25,1466.7083333333333L2296.25,1471" marker-end="url(#arrowhead)" fill="none"/><g data-testid="graph-Algo1 Error_Check-1-0" class="edge-label" transform="translate(2265.7916666666665,1444.4862372694743)"><rect x="-22" y="-8.25" width="44" height="16.5" class="sc-evrZIY jFsCNC"/><text class="sc-fIavCj eLRtqJ label"><tspan xml:space="preserve" text-anchor="middle" alignment-baseline="central">Rule #1</tspan><title>Rule #1</title></text></g></g><g class="sc-bWXABl gjBxyu edge"><path id="state-Algo1 Error_Check-1:state-family_processed_check:choiceDefault" d="M1873.5,1409.306049822064L1823.25,1415.2967081850536C1773,1421.2873665480427,1672.5,1433.2686832740212,1559.9166666666667,1445.599928681545C1447.3333333333333,1457.931174089069,1322.6666666666667,1470.6123481781378,1260.3333333333333,1476.952935222672L1198,1483.2935222672065" marker-end="url(#arrowhead)" fill="none"/><g data-testid="graph-Algo1 Error_Check-1-Default" class="edge-label" transform="translate(1559.9166666666667,1445.599928681545)"><rect x="-22" y="-8.25" width="44" height="16.5" class="sc-evrZIY jFsCNC"/><text class="sc-fIavCj eLRtqJ label"><tspan xml:space="preserve" text-anchor="middle" alignment-baseline="central">Default</tspan><title>Default</title></text></g></g><g class="sc-bWXABl gjBxyu edge"><path id="state-Notification:Algo1 Exit Code1:state-trigger_tar:normal" d="M2296.25,1520L2296.25,1522.9166666666667C2296.25,1525.8333333333333,2296.25,1531.6666666666667,2239.5,1539.7592290988057C2182.75,1547.8517915309446,2069.25,1558.203583061889,2012.5,1563.3794788273617L1955.75,1568.555374592834" marker-end="url(#arrowhead)" fill="none"/></g><g class="sc-bWXABl gjBxyu edge"><path id="state-trigger_tar:end:normal" d="M1835.75,1604L1835.75,1606.9166666666667C1835.75,1609.8333333333333,1835.75,1615.6666666666667,1687.2049084368855,1625.0082236883763C1538.6598168737708,1634.349780710086,1241.5696337475413,1647.1995614201721,1093.0245421844268,1653.624451775215L944.4794506213121,1660.049342130258" marker-end="url(#arrowhead)" fill="none"/></g><g class="sc-bWXABl gjBxyu edge"><path id="state-logic:state-Newton Error_Check:normal" d="M1456.25,765.5L1456.25,769.7916666666666C1456.25,774.0833333333334,1456.25,782.6666666666666,1456.25,791.25C1456.25,799.8333333333334,1456.25,808.4166666666666,1456.25,812.7083333333334L1456.25,817" marker-end="url(#arrowhead)" fill="none"/></g><g class="sc-bWXABl gjBxyu edge"><path id="state-Newton Error_Check:state-Newton Error_Check-1:choiceRule:0" d="M1568.5111940298507,866L1588.1759950248754,870.2916666666666C1607.8407960199004,874.5833333333334,1647.17039800995,883.1666666666666,1666.835199004975,895.8333333333334C1686.5,908.5,1686.5,925.25,1686.5,940.625C1686.5,956,1686.5,970,1686.5,984C1686.5,998,1686.5,1012,1686.5,1027.375C1686.5,1042.75,1686.5,1059.5,1686.5,1076.25C1686.5,1093,1686.5,1109.75,1686.5,1125.125C1686.5,1140.5,1686.5,1154.5,1686.5,1168.5C1686.5,1182.5,1686.5,1196.5,1686.5,1211.875C1686.5,1227.25,1686.5,1244,1686.5,1260.75C1686.5,1277.5,1686.5,1294.25,1686.5,1309.625C1686.5,1325,1686.5,1339,1686.5,1348.9166666666667C1686.5,1358.8333333333333,1686.5,1364.6666666666667,1686.5,1367.5833333333333L1686.5,1370.5" marker-end="url(#arrowhead)" fill="none"/><g data-testid="graph-Newton Error_Check-0" class="edge-label" transform="translate(1666.835199004975,895.8333333333334)"><rect x="-22" y="-8.25" width="44" height="16.5" class="sc-evrZIY jFsCNC"/><text class="sc-fIavCj eLRtqJ label"><tspan xml:space="preserve" text-anchor="middle" alignment-baseline="central">Rule #1</tspan><title>Rule #1</title></text></g></g><g class="sc-bWXABl gjBxyu edge"><path id="state-Newton Error_Check:state-algo2:choiceDefault" d="M1381.4092039800994,866L1368.299336650083,870.2916666666666C1355.1894693200663,874.5833333333334,1328.969734660033,883.1666666666666,1315.8598673300166,891.75C1302.75,900.3333333333334,1302.75,908.9166666666666,1302.75,913.2083333333334L1302.75,917.5" marker-end="url(#arrowhead)" fill="none"/><g data-testid="graph-Newton Error_Check-Default" class="edge-label" transform="translate(1315.8598673300166,891.75)"><rect x="-22" y="-8.25" width="44" height="16.5" class="sc-evrZIY jFsCNC"/><text class="sc-fIavCj eLRtqJ label"><tspan xml:space="preserve" text-anchor="middle" alignment-baseline="central">Default</tspan><title>Default</title></text></g></g><g class="sc-bWXABl gjBxyu edge"><path id="state-Newton Error_Check-1:state-Notification:Logic Exit Code1:choiceRule:0" d="M1806.5,1414.9174236168456L1836.9583333333333,1419.972853014038C1867.4166666666667,1425.0282824112303,1928.3333333333333,1435.1391412056153,1958.7916666666667,1444.4862372694743C1989.25,1453.8333333333333,1989.25,1462.4166666666667,1989.25,1466.7083333333333L1989.25,1471" marker-end="url(#arrowhead)" fill="none"/><g data-testid="graph-Newton Error_Check-1-0" class="edge-label" transform="translate(1958.7916666666667,1444.4862372694743)"><rect x="-22" y="-8.25" width="44" height="16.5" class="sc-evrZIY jFsCNC"/><text class="sc-fIavCj eLRtqJ label"><tspan xml:space="preserve" text-anchor="middle" alignment-baseline="central">Rule #1</tspan><title>Rule #1</title></text></g></g><g class="sc-bWXABl gjBxyu edge"><path id="state-Newton Error_Check-1:state-family_processed_check:choiceDefault" d="M1566.5,1415.6861063464837L1537.9166666666667,1420.613421955403C1509.3333333333333,1425.5407375643226,1452.1666666666667,1435.3953687821613,1390.75,1445.527337387926C1329.3333333333333,1455.6593059936906,1263.6666666666667,1466.0686119873817,1230.8333333333333,1471.2732649842271L1198,1476.4779179810726" marker-end="url(#arrowhead)" fill="none"/><g data-testid="graph-Newton Error_Check-1-Default" class="edge-label" transform="translate(1390.75,1445.527337387926)"><rect x="-22" y="-8.25" width="44" height="16.5" class="sc-evrZIY jFsCNC"/><text class="sc-fIavCj eLRtqJ label"><tspan xml:space="preserve" text-anchor="middle" alignment-baseline="central">Default</tspan><title>Default</title></text></g></g><g class="sc-bWXABl gjBxyu edge"><path id="state-Notification:Logic Exit Code1:state-trigger_tar:normal" d="M1989.25,1520L1989.25,1522.9166666666667C1989.25,1525.8333333333333,1989.25,1531.6666666666667,1978.5902777777776,1537.5C1967.9305555555557,1543.3333333333333,1946.6111111111113,1549.1666666666667,1935.951388888889,1552.0833333333333L1925.2916666666667,1555" marker-end="url(#arrowhead)" fill="none"/></g><g class="sc-bWXABl gjBxyu edge"><path id="state-algo2:state-Algo2 Error_Check:normal" d="M1302.75,966.5L1302.75,969.4166666666666C1302.75,972.3333333333334,1302.75,978.1666666666666,1302.75,984C1302.75,989.8333333333334,1302.75,995.6666666666666,1302.75,998.5833333333334L1302.75,1001.5" marker-end="url(#arrowhead)" fill="none"/></g><g class="sc-bWXABl gjBxyu edge"><path id="state-Algo2 Error_Check:state-Algo2 Error_Check-1:choiceRule:0" d="M1340.1703980099503,1050.5L1346.7253316749586,1054.7916666666667C1353.280265339967,1059.0833333333333,1366.3901326699834,1067.6666666666667,1372.9450663349917,1080.3333333333333C1379.5,1093,1379.5,1109.75,1379.5,1125.125C1379.5,1140.5,1379.5,1154.5,1379.5,1168.5C1379.5,1182.5,1379.5,1196.5,1379.5,1211.875C1379.5,1227.25,1379.5,1244,1379.5,1260.75C1379.5,1277.5,1379.5,1294.25,1379.5,1309.625C1379.5,1325,1379.5,1339,1379.5,1348.9166666666667C1379.5,1358.8333333333333,1379.5,1364.6666666666667,1379.5,1367.5833333333333L1379.5,1370.5" marker-end="url(#arrowhead)" fill="none"/><g data-testid="graph-Algo2 Error_Check-0" class="edge-label" transform="translate(1372.9450663349917,1080.3333333333333)"><rect x="-22" y="-8.25" width="44" height="16.5" class="sc-evrZIY jFsCNC"/><text class="sc-fIavCj eLRtqJ label"><tspan xml:space="preserve" text-anchor="middle" alignment-baseline="central">Rule #1</tspan><title>Rule #1</title></text></g></g><g class="sc-bWXABl gjBxyu edge"><path id="state-Algo2 Error_Check:state-calc:choiceDefault" d="M1182.75,1049.0372492836677L1159.125,1053.5727077363897C1135.5,1058.108166189112,1088.25,1067.1790830945558,1064.625,1076.0062082139445C1041,1084.8333333333333,1041,1093.4166666666667,1041,1097.7083333333333L1041,1102" marker-end="url(#arrowhead)" fill="none"/><g data-testid="graph-Algo2 Error_Check-Default" class="edge-label" transform="translate(1064.625,1076.0062082139445)"><rect x="-22" y="-8.25" width="44" height="16.5" class="sc-evrZIY jFsCNC"/><text class="sc-fIavCj eLRtqJ label"><tspan xml:space="preserve" text-anchor="middle" alignment-baseline="central">Default</tspan><title>Default</title></text></g></g><g class="sc-bWXABl gjBxyu edge"><path id="state-Algo2 Error_Check-1:state-Notification:Algo2 Exit Code1:choiceRule:0" d="M1499.5,1414.9174236168456L1529.9583333333333,1419.972853014038C1560.4166666666667,1425.0282824112303,1621.3333333333333,1435.1391412056153,1651.7916666666667,1444.4862372694743C1682.25,1453.8333333333333,1682.25,1462.4166666666667,1682.25,1466.7083333333333L1682.25,1471" marker-end="url(#arrowhead)" fill="none"/><g data-testid="graph-Algo2 Error_Check-1-0" class="edge-label" transform="translate(1651.7916666666667,1444.4862372694743)"><rect x="-22" y="-8.25" width="44" height="16.5" class="sc-evrZIY jFsCNC"/><text class="sc-fIavCj eLRtqJ label"><tspan xml:space="preserve" text-anchor="middle" alignment-baseline="central">Rule #1</tspan><title>Rule #1</title></text></g></g><g class="sc-bWXABl gjBxyu edge"><path id="state-Algo2 Error_Check-1:state-family_processed_check:choiceDefault" d="M1300.7587064676618,1419.5L1286.9655887230515,1423.7916666666667C1273.1724709784412,1428.0833333333333,1245.5862354892206,1436.6666666666667,1219.8362354892206,1445.25C1194.0862354892206,1453.8333333333333,1170.1724709784412,1462.4166666666667,1158.2155887230515,1466.7083333333333L1146.2587064676618,1471" marker-end="url(#arrowhead)" fill="none"/><g data-testid="graph-Algo2 Error_Check-1-Default" class="edge-label" transform="translate(1219.8362354892206,1445.25)"><rect x="-22" y="-8.25" width="44" height="16.5" class="sc-evrZIY jFsCNC"/><text class="sc-fIavCj eLRtqJ label"><tspan xml:space="preserve" text-anchor="middle" alignment-baseline="central">Default</tspan><title>Default</title></text></g></g><g class="sc-bWXABl gjBxyu edge"><path id="state-Notification:Algo2 Exit Code1:state-trigger_tar:normal" d="M1682.25,1520L1682.25,1522.9166666666667C1682.25,1525.8333333333333,1682.25,1531.6666666666667,1692.9097222222224,1537.5C1703.5694444444443,1543.3333333333333,1724.8888888888887,1549.1666666666667,1735.548611111111,1552.0833333333333L1746.2083333333333,1555" marker-end="url(#arrowhead)" fill="none"/></g><g class="sc-bWXABl gjBxyu edge"><path id="state-calc:state-Cal Error_Check:normal" d="M1041,1151L1041,1153.9166666666667C1041,1156.8333333333333,1041,1162.6666666666667,1041,1168.5C1041,1174.3333333333333,1041,1180.1666666666667,1041,1183.0833333333333L1041,1186" marker-end="url(#arrowhead)" fill="none"/></g><g class="sc-bWXABl gjBxyu edge"><path id="state-Cal Error_Check:state-Cal Error_Check-1:choiceRule:0" d="M1041,1235L1041,1239.2916666666667C1041,1243.5833333333333,1041,1252.1666666666667,1041,1264.8333333333333C1041,1277.5,1041,1294.25,1041,1309.625C1041,1325,1041,1339,1041,1348.9166666666667C1041,1358.8333333333333,1041,1364.6666666666667,1041,1367.5833333333333L1041,1370.5" marker-end="url(#arrowhead)" fill="none"/><g data-testid="graph-Cal Error_Check-0" class="edge-label" transform="translate(1041,1264.8333333333333)"><rect x="-22" y="-8.25" width="44" height="16.5" class="sc-evrZIY jFsCNC"/><text class="sc-fIavCj eLRtqJ label"><tspan xml:space="preserve" text-anchor="middle" alignment-baseline="central">Rule #1</tspan><title>Rule #1</title></text></g></g><g class="sc-bWXABl gjBxyu edge"><path id="state-Cal Error_Check:state-hub:choiceDefault" d="M921,1221.3453237410072L848.3333333333334,1227.9127697841725C775.6666666666666,1234.480215827338,630.3333333333334,1247.6151079136691,557.6666666666666,1258.4742206235012C485,1269.3333333333333,485,1277.9166666666667,485,1282.2083333333333L485,1286.5" marker-end="url(#arrowhead)" fill="none"/><g data-testid="graph-Cal Error_Check-Default" class="edge-label" transform="translate(557.6666666666666,1258.4742206235012)"><rect x="-22" y="-8.25" width="44" height="16.5" class="sc-evrZIY jFsCNC"/><text class="sc-fIavCj eLRtqJ label"><tspan xml:space="preserve" text-anchor="middle" alignment-baseline="central">Default</tspan><title>Default</title></text></g></g><g class="sc-bWXABl gjBxyu edge"><path id="state-Cal Error_Check-1:state-Notification:Calc Exit Code1:choiceRule:0" d="M921,1418.2818532818533L897.8333333333334,1422.7765444015442C874.6666666666666,1427.2712355212354,828.3333333333334,1436.2606177606176,805.1666666666666,1445.0469755469755C782,1453.8333333333333,782,1462.4166666666667,782,1466.7083333333333L782,1471" marker-end="url(#arrowhead)" fill="none"/><g data-testid="graph-Cal Error_Check-1-0" class="edge-label" transform="translate(805.1666666666666,1445.0469755469755)"><rect x="-22" y="-8.25" width="44" height="16.5" class="sc-evrZIY jFsCNC"/><text class="sc-fIavCj eLRtqJ label"><tspan xml:space="preserve" text-anchor="middle" alignment-baseline="central">Rule #1</tspan><title>Rule #1</title></text></g></g><g class="sc-bWXABl gjBxyu edge"><path id="state-Cal Error_Check-1:state-family_processed_check:choiceDefault" d="M1041,1419.5L1041,1423.7916666666667C1041,1428.0833333333333,1041,1436.6666666666667,1044.1600331674958,1445.25C1047.3200663349917,1453.8333333333333,1053.6401326699834,1462.4166666666667,1056.8001658374792,1466.7083333333333L1059.960199004975,1471" marker-end="url(#arrowhead)" fill="none"/><g data-testid="graph-Cal Error_Check-1-Default" class="edge-label" transform="translate(1044.1600331674958,1445.25)"><rect x="-22" y="-8.25" width="44" height="16.5" class="sc-evrZIY jFsCNC"/><text class="sc-fIavCj eLRtqJ label"><tspan xml:space="preserve" text-anchor="middle" alignment-baseline="central">Default</tspan><title>Default</title></text></g></g><g class="sc-bWXABl gjBxyu edge"><path id="state-Notification:Calc Exit Code1:state-trigger_tar:normal" d="M782,1520L782,1522.9166666666667C782,1525.8333333333333,782,1531.6666666666667,937.625,1540.7861803084222C1093.25,1549.905693950178,1404.5,1562.3113879003558,1560.125,1568.5142348754446L1715.75,1574.7170818505338" marker-end="url(#arrowhead)" fill="none"/></g><g class="sc-bWXABl gjBxyu edge"><path id="state-hub:state-Wltphub Error_Check:normal" d="M485,1335.5L485,1338.4166666666667C485,1341.3333333333333,485,1347.1666666666667,485,1353C485,1358.8333333333333,485,1364.6666666666667,485,1367.5833333333333L485,1370.5" marker-end="url(#arrowhead)" fill="none"/></g><g class="sc-bWXABl gjBxyu edge"><path id="state-Wltphub Error_Check:state-Notification:hub Exit Code1:choiceRule:0" d="M485,1419.5L485,1423.7916666666667C485,1428.0833333333333,485,1436.6666666666667,485,1445.25C485,1453.8333333333333,485,1462.4166666666667,485,1466.7083333333333L485,1471" marker-end="url(#arrowhead)" fill="none"/><g data-testid="graph-Wltphub Error_Check-0" class="edge-label" transform="translate(485,1445.25)"><rect x="-22" y="-8.25" width="44" height="16.5" class="sc-evrZIY jFsCNC"/><text class="sc-fIavCj eLRtqJ label"><tspan xml:space="preserve" text-anchor="middle" alignment-baseline="central">Rule #1</tspan><title>Rule #1</title></text></g></g><g class="sc-bWXABl gjBxyu edge"><path id="state-Wltphub Error_Check:state-family_processed_check:choiceDefault" d="M605,1408.209200438116L661.0833333333334,1414.3826670317633C717.1666666666666,1420.5561336254107,829.3333333333334,1432.9030668127052,897.0746268656717,1443.3682000730194C964.81592039801,1453.8333333333333,988.1318407960199,1462.4166666666667,999.789800995025,1466.7083333333333L1011.4477611940299,1471" marker-end="url(#arrowhead)" fill="none"/><g data-testid="graph-Wltphub Error_Check-Default" class="edge-label" transform="translate(897.0746268656717,1443.3682000730194)"><rect x="-22" y="-8.25" width="44" height="16.5" class="sc-evrZIY jFsCNC"/><text class="sc-fIavCj eLRtqJ label"><tspan xml:space="preserve" text-anchor="middle" alignment-baseline="central">Default</tspan><title>Default</title></text></g></g><g class="sc-bWXABl gjBxyu edge"><path id="state-Notification:hub Exit Code1:state-trigger_tar:normal" d="M485,1520L485,1522.9166666666667C485,1525.8333333333333,485,1531.6666666666667,690.125,1540.9614565981863C895.25,1550.2562465297058,1305.5,1563.0124930594113,1510.625,1569.3906163242643L1715.75,1575.768739589117" marker-end="url(#arrowhead)" fill="none"/></g><g class="sc-bWXABl gjBxyu edge"><path id="state-family_processed_check:state-family_file_list:normal" d="M984.3880597014926,1471L967.9900497512439,1466.7083333333333C951.5920398009952,1462.4166666666667,918.7960199004975,1453.8333333333333,902.3980099502487,1441.1666666666667C886,1428.5,886,1411.75,886,1396.375C886,1381,886,1367,886,1353C886,1339,886,1325,886,1309.625C886,1294.25,886,1277.5,886,1260.75C886,1244,886,1227.25,886,1211.875C886,1196.5,886,1182.5,886,1168.5C886,1154.5,886,1140.5,886,1125.125C886,1109.75,886,1093,886,1076.25C886,1059.5,886,1042.75,886,1027.375C886,1012,886,998,886,984C886,970,886,956,886,940.625C886,925.25,886,908.5,886,891.75C886,875,886,858.25,886,841.5C886,824.75,886,808,886,791.25C886,774.5,886,757.75,886,741C886,724.25,886,707.5,886,690.75C886,674,886,657.25,886,641.875C886,626.5,886,612.5,886,598.5C886,584.5,886,570.5,886,555.125C886,539.75,886,523,886,506.25C886,489.5,886,472.75,886,457.375C886,442,886,428,886,414C886,400,886,386,886,372C886,358,886,344,1001.9166666666666,331.03004291845497C1117.8333333333333,318.0600858369099,1349.6666666666667,306.12017167381975,1465.5833333333333,300.1502145922747L1581.5,294.18025751072963" marker-end="url(#arrowhead)" fill="none"/></g><g class="sc-bWXABl gjBxyu edge"><path id="state-Fail:end:normal" d="M158.5,1604L158.5,1606.9166666666667C158.5,1609.8333333333333,158.5,1615.6666666666667,282.1715574599244,1624.977347102531C405.8431149198488,1634.2880275383952,653.1862298396975,1647.0760550767907,776.8577872996219,1653.4700688459882L900.5293447595462,1659.864082615186" marker-end="url(#arrowhead)" fill="none"/></g></g><defs><marker id="arrowhead" markerWidth="8" markerHeight="6" refX="7" refY="3" orient="auto" class="sc-csvncw culRCB"><polygon points="0 0, 8 3, 0 6"/></marker><marker id="highlighted-arrowhead" markerWidth="6" markerHeight="4" refX="5" refY="2" orient="auto" class="sc-csvncw culRCB"><polygon points="0 0, 6 2, 0 4"/></marker><marker id="error-arrowhead" markerWidth="6" markerHeight="4" refX="5" refY="2" orient="auto" class="sc-csvncw culRCB"><polygon points="0 0, 6 2, 0 4"/></marker><marker id="large-arrowhead" markerWidth="10" markerHeight="8" refX="9" refY="4" orient="auto" class="sc-csvncw culRCB"><polygon points="0 0, 10 4, 0 8"/></marker><marker id="large-highlighted-arrowhead" markerWidth="5.5" markerHeight="4" refX="4.5" refY="2" orient="auto" class="sc-csvncw culRCB"><polygon points="0 0, 5.5 2, 0 4"/></marker><marker id="large-error-arrowhead" markerWidth="10" markerHeight="8" refX="9" refY="4" orient="auto" class="sc-csvncw culRCB"><polygon points="0 0, 10 4, 0 8"/></marker><linearGradient x1="0%" y1="100%" x2="100%" y2="0%" id="gradient-orange"><stop stop-color="#C8511B" offset="0%"/><stop stop-color="#FF9900" offset="100%"/></linearGradient><linearGradient x1="0%" y1="100%" x2="100%" y2="0%" id="gradient-turquoise"><stop stop-color="#055F4E" offset="0%"/><stop stop-color="#56C0A7" offset="100%"/></linearGradient><linearGradient x1="0%" y1="100%" x2="100%" y2="0%" id="gradient-blue"><stop stop-color="#2E27AD" offset="0%"/><stop stop-color="#527FFF" offset="100%"/></linearGradient><linearGradient x1="0%" y1="100%" x2="100%" y2="0%" id="gradient-pink"><stop stop-color="#B0084D" offset="0%"/><stop stop-color="#FF4F8B" offset="100%"/></linearGradient><linearGradient x1="0%" y1="100%" x2="100%" y2="0%" id="gradient-red"><stop stop-color="#BD0816" offset="0%"/><stop stop-color="#FF5252" offset="100%"/></linearGradient><linearGradient x1="0%" y1="100%" x2="100%" y2="0%" id="gradient-green"><stop stop-color="#1B660F" offset="0%"/><stop stop-color="#6CAE3E" offset="100%"/></linearGradient><linearGradient x1="0%" y1="100%" x2="100%" y2="0%" id="gradient-purple"><stop stop-color="#4D27A8" offset="0%"/><stop stop-color="#A166FF" offset="100%"/></linearGradient><linearGradient x1="0%" y1="100%" x2="100%" y2="0%" id="gradient-grey"><stop stop-color="#DCDCDC" offset="0%"/><stop stop-color="#F6F5F7" offset="100%"/></linearGradient>,<linearGradient x1="0%" y1="100%" x2="100%" y2="0%" id="gradient-ag"><stop stop-color="#BC1356" offset="0%"/><stop stop-color="#F34482" offset="100%"/></linearGradient><linearGradient x1="0%" y1="100%" x2="100%" y2="0%" id="gradient-athena"><stop stop-color="#5930B5" offset="0%"/><stop stop-color="#945DF2" offset="100%"/></linearGradient><linearGradient x1="0%" y1="100%" x2="100%" y2="0%" id="gradient-emr"><stop stop-color="#5930B5" offset="0%"/><stop stop-color="#945DF2" offset="100%"/></linearGradient><linearGradient x1="0%" y1="100%" x2="100%" y2="0%" id="gradient-glue"><stop stop-color="#5930B5" offset="0%"/><stop stop-color="#945DF2" offset="100%"/></linearGradient><linearGradient x1="0%" y1="100%" x2="100%" y2="0%" id="gradient-sns"><stop stop-color="#BC1356" offset="0%"/><stop stop-color="#F34482" offset="100%"/></linearGradient><linearGradient x1="0%" y1="100%" x2="100%" y2="0%" id="gradient-states"><stop stop-color="#BC1356" offset="0%"/><stop stop-color="#F34482" offset="100%"/></linearGradient><linearGradient x1="0%" y1="100%" x2="100%" y2="0%" id="gradient-generic"><stop stop-color="#ccc" offset="0%"/><stop stop-color="#ddd" offset="100%"/></linearGradient><g stroke="none" stroke-width="1" fill="none" fill-rule="evenodd" id="icon-flow-pass"><g transform="translate(10.500000, 8.750000)" fill="#0073BB" fill-rule="nonzero"><path d="M13.8217363,31.2803301 L13.7368454,31.3532508 L13.7368454,31.3532508 L13.6534426,31.407053 L13.6534426,31.407053 L13.6052878,31.4313839 L13.6052878,31.4313839 L13.5081671,31.4681458 L13.5081671,31.4681458 L13.4513711,31.4828395 L13.4513711,31.4828395 L13.3846755,31.4942127 L13.3846755,31.4942127 L13.3412428,31.498357 L13.3412428,31.498357 L13.241495,31.498357 L13.241495,31.498357 L13.1802045,31.4917588 L13.1802045,31.4917588 L13.1314644,31.4828361 L13.1314644,31.4828361 L13.0652921,31.4652652 L12.9776235,31.4314294 L12.9776235,31.4314294 L12.9293782,31.4070608 L12.9293782,31.4070608 L12.8294824,31.3409596 L12.7610762,31.2803301 L12.7610762,31.2803301 L8.26107616,26.7803301 C7.96818295,26.4874369 7.96818295,26.0125631 8.26107616,25.7196699 C8.52734273,25.4534034 8.94400641,25.4291973 9.2376179,25.6470518 L9.32173634,25.7196699 L12.5814063,28.979 L12.581,19.7495522 L3.5,19.75 C1.6314366,19.75 0.104873551,18.2857224 0.00517886273,16.4420352 L0,16.25 L0,12.25 C0,10.3814366 1.4642776,8.85487355 3.3079648,8.75517886 L3.5,8.75 L11.686,8.74955216 L11.686,10.2495522 L3.5,10.25 C2.4456382,10.25 1.58183488,11.0658778 1.50548574,12.1007377 L1.5,12.25 L1.5,16.25 C1.5,17.3043618 2.31587779,18.1681651 3.35073766,18.2445143 L3.5,18.25 L22.5,18.25 C23.5543618,18.25 24.4181651,17.4341222 24.4945143,16.3992623 L24.5,16.25 L24.5,12.25 C24.5,11.1956382 23.6841222,10.3318349 22.6492623,10.2554857 L22.5,10.25 L15.686,10.2495522 L15.686,8.74955216 L22.5,8.75 C24.3685634,8.75 25.8951264,10.2142776 25.9948211,12.0579648 L26,12.25 L26,16.25 C26,18.1185634 24.5357224,19.6451264 22.6920352,19.7448211 L22.5,19.75 L14.081,19.7495522 L14.0814063,28.899 L17.2610762,25.7196699 L17.3451946,25.6470518 C17.6388061,25.4291973 18.0554698,25.4534034 18.3217363,25.7196699 C18.5880029,25.9859365 18.6122089,26.4026002 18.3943545,26.6962117 L18.3217363,26.7803301 L13.8217363,31.2803301 Z"/><polygon points="14.0818291 0 14.0818291 14.5 12.5818291 14.5 12.5818291 0"/></g></g><g stroke="none" stroke-width="1" fill="none" fill-rule="evenodd" id="icon-flow-choice"><g transform="translate(9.252020, 8.729185)" fill="#0073BB" fill-rule="nonzero"><path d="M13.7176503,0.219669914 C13.9839168,-0.0465966484 14.4005805,-0.0708026996 14.694192,0.147051761 L14.7783104,0.219669914 L26.7991257,12.2404852 C27.0653923,12.5067518 27.0895983,12.9234154 26.8717439,13.2170269 L26.7991257,13.3011454 L19.848,20.251 L27.063,27.58 L27.0635443,24.4725437 C27.0635443,24.0583302 27.3993308,23.7225437 27.8135443,23.7225437 C28.1901021,23.7225437 28.5018441,24.0000532 28.5554124,24.3617142 L28.5635443,24.4725437 L28.5635443,29.4222912 C28.5635443,29.4735748 28.5583971,29.5236562 28.5485912,29.5720469 L28.5290567,29.6477745 L28.4912259,29.7440224 L28.4674556,29.7898473 L28.4399848,29.8348433 L28.3922808,29.8993609 L28.3266417,29.9693147 L28.2903734,30.0012261 L28.2103598,30.0588356 L28.1372883,30.0990133 L28.0408973,30.1372113 L27.9243738,30.1641593 C27.8841362,30.1698129 27.8491297,30.1722912 27.8135443,30.1722912 L22.8637969,30.1722912 C22.4495833,30.1722912 22.1137969,29.8365048 22.1137969,29.4222912 C22.1137969,29.0457334 22.3913063,28.7339914 22.7529674,28.6804231 L22.8637969,28.6722912 L26.032,28.672 L18.787,21.312 L14.7783104,25.3219606 C14.5120439,25.5882272 14.0953802,25.6124333 13.8017687,25.3945788 L13.7176503,25.3219606 L9.63,21.234 L2.386,28.671 L5.69974747,28.6722912 L5.81057697,28.6804231 C6.17223802,28.7339914 6.44974747,29.0457334 6.44974747,29.4222912 C6.44974747,29.801987 6.16759359,30.1157822 5.80151803,30.1654446 L5.69974747,30.1722912 L0.75,30.1722912 L0.645175107,30.1650238 L0.571316134,30.150876 L0.491748953,30.1266437 L0.399838514,30.0857012 L0.323957521,30.0396165 L0.243169757,29.975129 L0.170912131,29.8989347 L0.109961584,29.8134582 L0.0656949991,29.7297074 L0.0297396696,29.6320944 L0.0076057584,29.5294944 L6.67910172e-13,29.4222912 L6.67910172e-13,24.4725437 L0.00813192572,24.3617142 C0.0617002376,24.0000532 0.373442216,23.7225437 0.75,23.7225437 C1.12969577,23.7225437 1.44349096,24.0046976 1.49315338,24.3707732 L1.5,24.4725437 L1.499,27.433 L8.569,20.174 L1.69683498,13.3011454 C1.43056842,13.0348788 1.40636237,12.6182151 1.62421683,12.3246036 L1.69683498,12.2404852 L13.7176503,0.219669914 Z M14.3527697,23.728356 L25.2081355,12.7708153 L14.2479803,1.81066017 L3.28782524,12.7708153 L9.616,19.099 L14.3527697,23.728356 Z"/><path d="M15.2319803,14.0468153 L15.2319803,13.2668153 C16.0033137,12.8508153 16.5579803,12.4218153 16.8959803,11.9798153 C17.2339803,11.5378153 17.4029803,11.0178153 17.4029803,10.4198153 C17.4029803,9.65714861 17.151647,9.06131528 16.6489803,8.63231528 C16.1463137,8.20331528 15.448647,7.98881528 14.5559803,7.98881528 C13.6979803,7.98881528 12.874647,8.19248195 12.0859803,8.59981528 L12.0859803,8.59981528 L12.0859803,10.3288153 C12.8313137,9.98214861 13.4943137,9.80881528 14.0749803,9.80881528 C14.395647,9.80881528 14.6404803,9.87814861 14.8094803,10.0168153 C14.9784803,10.1554819 15.0629803,10.3591486 15.0629803,10.6278153 C15.0629803,10.9138153 14.9763137,11.1651486 14.8029803,11.3818153 C14.629647,11.5984819 14.343647,11.8151486 13.9449803,12.0318153 L13.9449803,12.0318153 L13.1909803,12.4348153 L13.3339803,14.0468153 L15.2319803,14.0468153 Z M14.3089803,17.4398153 C14.7249803,17.4398153 15.0608137,17.3141486 15.3164803,17.0628153 C15.572147,16.8114819 15.6999803,16.4821486 15.6999803,16.0748153 C15.6999803,15.6674819 15.572147,15.3381486 15.3164803,15.0868153 C15.0608137,14.8354819 14.7249803,14.7098153 14.3089803,14.7098153 C13.8929803,14.7098153 13.557147,14.8354819 13.3014803,15.0868153 C13.0458137,15.3381486 12.9179803,15.6674819 12.9179803,16.0748153 C12.9179803,16.4821486 13.0458137,16.8114819 13.3014803,17.0628153 C13.557147,17.3141486 13.8929803,17.4398153 14.3089803,17.4398153 Z"/></g></g><g stroke="none" stroke-width="1" fill="none" fill-rule="evenodd" id="icon-flow-fail"><g transform="translate(11.250000, 12.250000)" fill="#D13212" fill-rule="nonzero"><path d="M12.75,0 C5.70836944,0 0,5.70836944 0,12.75 C0,19.7916306 5.70836944,25.5 12.75,25.5 C19.7916306,25.5 25.5,19.7916306 25.5,12.75 C25.5,5.70836944 19.7916306,0 12.75,0 Z M12.75,1.5 C18.9632034,1.5 24,6.53679656 24,12.75 C24,18.9632034 18.9632034,24 12.75,24 C6.53679656,24 1.5,18.9632034 1.5,12.75 C1.5,6.53679656 6.53679656,1.5 12.75,1.5 Z"/><path d="M16.5831403,8.21116377 C16.8767518,7.99330931 17.2934155,8.01751536 17.559682,8.28378193 C17.8259486,8.55004849 17.8501547,8.96671217 17.6323002,9.26032366 L17.559682,9.3444421 L13.622464,13.282112 L17.559682,17.2196699 C17.8525753,17.5125631 17.8525753,17.9874369 17.559682,18.2803301 C17.2934155,18.5465966 16.8767518,18.5708027 16.5831403,18.3529482 L16.4990219,18.2803301 L12.561464,14.343112 L8.62379406,18.2803301 L8.53967563,18.3529482 C8.24606413,18.5708027 7.82940045,18.5465966 7.56313389,18.2803301 C7.29686733,18.0140635 7.27266128,17.5973998 7.49051574,17.3037883 L7.56313389,17.2196699 L11.500464,13.282112 L7.56313389,9.3444421 C7.27024067,9.05154888 7.27024067,8.57667514 7.56313389,8.28378193 C7.82940045,8.01751536 8.24606413,7.99330931 8.53967563,8.21116377 L8.62379406,8.28378193 L12.561464,12.221112 L16.4990219,8.28378193 L16.5831403,8.21116377 Z"/></g></g><g stroke="none" stroke-width="1" fill="none" fill-rule="evenodd" id="icon-service-batch"><polygon fill="url(#gradient-orange)" fill-rule="nonzero" points="0 0 48 0 48 48 0 48"/><g transform="translate(8.571429, 8.571429)" fill="#FFFFFF"><path d="M27.6806723,23.3485714 L27.6806723,19.0043697 C29.5047648,18.6983597 30.8071576,17.0698645 30.7047354,15.2231199 C30.6023133,13.3763753 29.1278264,11.9018884 27.2810818,11.7994662 C25.4343372,11.6970441 23.805842,12.9994369 23.4998319,14.8235294 L19.1556303,14.8235294 C18.8971801,13.3026518 17.7057515,12.1112233 16.1848739,11.8527731 L16.1848739,8.72470588 C18.3834916,8.40736276 19.9633321,6.44525058 19.8042521,4.22955211 C19.6451721,2.01385363 17.8012338,0.297557709 15.5798319,0.297557709 C13.3584301,0.297557709 11.5144918,2.01385363 11.3554118,4.22955211 C11.1963318,6.44525058 12.7761723,8.40736276 14.9747899,8.72470588 L14.9747899,11.8527731 C13.4539123,12.1112233 12.2624838,13.3026518 12.0040336,14.8235294 L7.96840336,14.8235294 C7.65921366,12.8314023 5.89371883,11.3956768 3.88039532,11.499103 C1.86707181,11.6025292 0.257991345,13.2116096 0.15456515,15.2249331 C0.0511389546,17.2382566 1.48686453,19.0037515 3.4789916,19.3129412 L3.4789916,23.3485714 C1.61814751,23.6631115 0.308674744,25.351003 0.466497598,27.2316327 C0.624320452,29.1122624 2.19679325,30.5583004 4.08403361,30.5583004 C5.97127397,30.5583004 7.54374678,29.1122624 7.70156963,27.2316327 C7.85939248,25.351003 6.54991972,23.6631115 4.68907563,23.3485714 L4.68907563,19.3129412 C6.37715229,19.0456282 7.70109042,17.7216901 7.96840336,16.0336134 L12.0040336,16.0336134 C12.2624838,17.554491 13.4539123,18.7459196 14.9747899,19.0043697 L14.9747899,22.737479 C12.9449227,23.0535289 11.500284,24.8786563 11.6587814,26.9268571 C11.8172788,28.975058 13.5255076,30.5562048 15.5798319,30.5562048 C17.6341562,30.5562048 19.3423851,28.975058 19.5008825,26.9268571 C19.6593799,24.8786563 18.2147411,23.0535289 16.1848739,22.737479 L16.1848739,19.0043697 C17.7057515,18.7459196 18.8971801,17.554491 19.1556303,16.0336134 L23.4998319,16.0336134 C23.7582821,17.554491 24.9497106,18.7459196 26.4705882,19.0043697 L26.4705882,23.3485714 C24.6097441,23.6631115 23.3002714,25.351003 23.4580942,27.2316327 C23.6159171,29.1122624 25.1883899,30.5583004 27.0756303,30.5583004 C28.9628706,30.5583004 30.5353434,29.1122624 30.6931663,27.2316327 C30.8509891,25.351003 29.5415164,23.6631115 27.6806723,23.3485714 L27.6806723,23.3485714 Z M6.50420168,26.9243697 C6.50420168,28.2609917 5.42065553,29.3445378 4.08403361,29.3445378 C2.7474117,29.3445378 1.66386555,28.2609917 1.66386555,26.9243697 C1.66386555,25.5877478 2.7474117,24.5042017 4.08403361,24.5042017 C5.42065553,24.5042017 6.50420168,25.5877478 6.50420168,26.9243697 Z M4.08403361,18.1512605 C2.58033396,18.1512605 1.36134454,16.9322711 1.36134454,15.4285714 C1.36134454,13.9248718 2.58033396,12.7058824 4.08403361,12.7058824 C5.58773327,12.7058824 6.80672269,13.9248718 6.80672269,15.4285714 C6.80339528,16.9308907 5.58635285,18.1479331 4.08403361,18.1512605 L4.08403361,18.1512605 Z M12.5546218,4.53781513 C12.5546218,2.86703773 13.9090545,1.51260504 15.5798319,1.51260504 C17.2506093,1.51260504 18.605042,2.86703773 18.605042,4.53781513 C18.605042,6.20859252 17.2506093,7.56302521 15.5798319,7.56302521 C13.9090545,7.56302521 12.5546218,6.20859252 12.5546218,4.53781513 Z M18.302521,26.6218487 C18.302521,28.1255484 17.0835316,29.3445378 15.5798319,29.3445378 C14.0761323,29.3445378 12.8571429,28.1255484 12.8571429,26.6218487 C12.8571429,25.1181491 14.0761323,23.8991597 15.5798319,23.8991597 C17.0821512,23.9024871 18.2991936,25.1195295 18.302521,26.6218487 Z M15.5798319,17.8487395 C14.24321,17.8487395 13.1596639,16.7651933 13.1596639,15.4285714 C13.1596639,14.0919495 14.24321,13.0084034 15.5798319,13.0084034 C16.9164538,13.0084034 18,14.0919495 18,15.4285714 C18,16.7651933 16.9164538,17.8487395 15.5798319,17.8487395 Z M24.6554622,15.4285714 C24.6554622,14.0919495 25.7390083,13.0084034 27.0756303,13.0084034 C28.4122522,13.0084034 29.4957983,14.0919495 29.4957983,15.4285714 C29.4957983,16.7651933 28.4122522,17.8487395 27.0756303,17.8487395 C25.7390083,17.8487395 24.6554622,16.7651933 24.6554622,15.4285714 Z M27.0756303,29.3445378 C25.7390083,29.3445378 24.6554622,28.2609917 24.6554622,26.9243697 C24.6554622,25.5877478 25.7390083,24.5042017 27.0756303,24.5042017 C28.4122522,24.5042017 29.4957983,25.5877478 29.4957983,26.9243697 C29.4957983,28.2609917 28.4122522,29.3445378 27.0756303,29.3445378 Z"/><circle cx="4.08403361" cy="15.4285714" r="1.21008403"/><circle cx="15.5798319" cy="26.6218487" r="1.21008403"/></g></g><g stroke="none" stroke-width="1" fill="none" fill-rule="evenodd" id="icon-service-sns"><polygon fill="url(#gradient-sns)" fill-rule="nonzero" points="0 0 48 0 48 48 0 48"/><g transform="translate(6.857143, 8.571429)" fill="#FFFFFF"><path d="M27.7901299,23.6384416 L27.7901299,24.1558442 C27.7901299,24.0935065 27.7901299,24.0311688 27.7901299,23.9688312 C27.7775636,23.8590598 27.7775636,23.748213 27.7901299,23.6384416 L27.7901299,23.6384416 Z"/><path d="M19.6051948,11.2207792 L19.5428571,11.3392208 C19.5678154,11.3007712 19.5867361,11.258725 19.598961,11.2145455 L19.6051948,11.2207792 Z"/><path d="M14.2005195,9.05757391 C13.6457143,9.05757391 8.74597403,9.01402597 8.74597403,10.8654545 C8.7438301,10.9827418 8.76501986,11.0992855 8.80831169,11.2083117 C8.82653378,11.2531204 8.84734819,11.2968307 8.87064935,11.3392208 L12.2618182,18.8197403 L12.2618182,22.6909091 C12.2618182,23.0836364 12.4238961,23.3142857 12.7667532,23.3142857 L12.9288312,23.3142857 C13.7125247,23.1091801 14.440768,22.7322822 15.0607792,22.2109091 L15.4784416,21.9179221 C15.6592098,21.8049511 15.7697195,21.6074445 15.7714286,21.3942857 L15.7714286,18.8384416 L19.5428571,11.3579221 L19.5428571,11.3579221 C19.5678154,11.3194725 19.5867361,11.2774263 19.598961,11.2332468 C19.6422529,11.1242205 19.6634426,11.0076769 19.6612987,10.8903896 C19.6612987,9.01402597 14.7615584,9.05757391 14.2005195,9.05757391 Z M14.2005195,10.2046753 C16.401039,10.2046753 17.8161039,10.5911688 18.2898701,10.8654545 C17.8161039,11.1397403 16.4197403,11.5262338 14.2005195,11.5262338 C11.9812987,11.5262338 10.5911688,11.1397403 10.1174026,10.8654545 C10.5974026,10.5974026 12,10.2046753 14.2005195,10.2046753 Z M14.6555844,18.3085714 C14.6555844,18.3958442 14.6555844,18.5516883 14.6555844,18.7137662 L14.6555844,21.1511688 L14.4124675,21.3007792 C14.0571429,21.5064935 13.7454545,21.6498701 13.3901299,21.8368831 L13.3901299,18.7012987 C13.3886333,18.6158595 13.3717396,18.5313906 13.3402597,18.4519481 L10.6846753,12.3802597 C11.8389408,12.6374106 13.0179565,12.7670187 14.2005195,12.7667532 C15.348723,12.7658697 16.4936743,12.6446888 17.6166234,12.4051948 L14.6555844,18.3085714 Z"/><path d="M25.5584416,26.2877922 C23.1182592,28.0539489 20.1800425,28.9991553 17.1677922,28.987013 C10.3854545,28.987013 4.60051948,24.5797403 3.24155844,18.0779221 C4.49932636,18.0180834 5.56391168,17.129231 5.84727273,15.9023377 L9.02649351,15.9023377 L9.02649351,14.7241558 L5.85974026,14.7241558 C5.6123242,13.4628894 4.53770095,12.5322348 3.25402597,12.4675325 C4.38212696,7.89245649 7.68622619,4.16375023 12.0923456,2.49340779 C16.498465,0.823065355 21.4440467,1.42435019 25.3215584,4.10181818 L26.0322078,3.11688312 C21.7378924,0.149676116 16.24326,-0.470649087 11.3954912,1.46444787 C6.54772241,3.39954482 2.99061722,7.63307653 1.92,12.7418182 C0.932896899,13.199098 0.301171353,14.1879667 0.301171353,15.2758442 C0.301171353,16.3637216 0.932896899,17.3525903 1.92,17.8098701 C3.41748481,25.0404909 9.78373505,30.2277095 17.1677922,30.2337964 C20.4315682,30.2402168 23.6134536,29.2123238 26.2566234,27.2976623 L25.5584416,26.2877922 Z M1.55844156,15.2727273 C1.55271604,14.4800639 2.14291159,13.8093871 2.92987013,13.7142732 L3.11688312,13.7142732 C3.74777503,13.7117621 4.31794978,14.08986 4.56113229,14.6720054 C4.8043148,15.2541508 4.67252426,15.9254842 4.22730765,16.3724888 C3.78209103,16.8194934 3.11129125,16.9539736 2.52817587,16.7131263 C1.94506049,16.472279 1.56468037,15.9036242 1.56467532,15.2727273 L1.55844156,15.2727273 Z"/><path d="M3.02961039,13.7142857 L2.9361039,13.7142857 L3.02961039,13.7142857 Z"/><path d="M31.1688312,18.0779221 C32.6428447,18.078856 33.8661509,16.9388268 33.9689704,15.4684034 C34.0717898,13.99798 33.0190455,12.6987979 31.5592463,12.4945848 C30.0994471,12.2903718 28.7306038,13.2507951 28.425974,14.692987 L25.1844156,14.692987 L25.1844156,6.98181818 L26.8675325,6.98181818 C27.0563221,8.42101044 28.3118379,9.47848632 29.7621759,9.4198723 C31.2125139,9.36125828 32.3786008,8.20591564 32.4506373,6.75618235 C32.5226737,5.30644905 31.4768647,4.04119855 30.0394816,3.83909528 C28.6020985,3.63699201 27.2479353,4.56479439 26.9174026,5.97818182 L24.6233766,5.94701299 C24.46336,5.91295115 24.296661,5.95657638 24.173843,6.06465628 C24.0510249,6.17273618 23.9865594,6.33253568 24,6.49558442 L24,14.6742857 L19.2062338,14.6742857 L19.2062338,15.8275325 L24,15.8275325 L24,23.9812987 C24,24.3255801 24.2790952,24.6046753 24.6233766,24.6046753 L26.5807792,24.6046753 C26.8643557,26.0184294 28.1735338,26.9869377 29.6083906,26.8444521 C31.0432474,26.7019665 32.1363845,25.4949011 32.1363845,24.052987 C32.1363845,22.6110729 31.0432474,21.4040075 29.6083906,21.2615219 C28.1735338,21.1190363 26.8643557,22.0875446 26.5807792,23.5012987 L25.2218182,23.5012987 L25.1906494,15.8212987 L28.425974,15.8212987 C28.689181,17.1289264 29.8349914,18.0716159 31.1688312,18.0779221 Z M31.1688312,13.7142857 C32.0295347,13.7142857 32.7272727,14.4120238 32.7272727,15.2727273 C32.7272727,16.1334308 32.0295347,16.8311688 31.1688312,16.8311688 C30.3081277,16.8311688 29.6103896,16.1334308 29.6103896,15.2727273 C29.6103896,14.4120238 30.3081277,13.7142857 31.1688312,13.7142857 Z M29.6103896,5.04311688 C30.2387555,5.04566069 30.8035988,5.42680178 31.0411357,6.00854606 C31.2786727,6.59029034 31.1420368,7.25785835 30.6950374,7.69949371 C30.2480381,8.14112907 29.5788693,8.26969613 29.0000349,8.02515366 C28.4212006,7.7806112 28.046906,7.21120799 28.0519481,6.58285714 C28.0519347,6.16901677 28.2171807,5.77230541 28.5109782,5.48084892 C28.8047757,5.18939244 29.2027964,5.02732533 29.6166234,5.03064935 L29.6103896,5.04311688 Z M29.2987013,22.4415439 C30.1351427,22.4379775 30.8252457,23.0953453 30.8622859,23.9309738 C30.8993261,24.7666023 30.2700924,25.4824511 29.4366146,25.5528913 C28.6031369,25.6233315 27.8626884,25.0232393 27.7589582,24.1932468 L27.7589582,24.1932468 C27.7589582,24.1309091 27.7589582,24.0685714 27.7589582,24.0062338 C27.7587404,23.8950352 27.7712901,23.7841792 27.7963636,23.6758442 L27.7963636,23.6758442 C27.9497157,22.9654386 28.5720416,22.4541501 29.2987013,22.4415439 L29.2987013,22.4415439 Z"/></g></g></defs></g><style data-styled="true" data-styled-version="5.3.5">.kWgEsm{cursor:pointer;}/*!sc*/
data-styled.g88[id="sc-grREDI"]{content:"kWgEsm,"}/*!sc*/
.gjBxyu{stroke:#555;background-color:#555;stroke-width:1px;}/*!sc*/
data-styled.g89[id="sc-bWXABl"]{content:"gjBxyu,"}/*!sc*/
.culRCB{fill:var(--color-text-form-secondary-1c3szk,#687078);}/*!sc*/
data-styled.g91[id="sc-csvncw"]{content:"culRCB,"}/*!sc*/
.edvWgW{font-weight:400;font-size:12px;line-height:16px;font-family:Amazon Ember,Arial,Roboto,Arial,sans-serif;text-shadow:none;fill:var(--color-text-body-default-7m2b3r,#16191f);}/*!sc*/
data-styled.g92[id="sc-dFdIVH"]{content:"edvWgW,"}/*!sc*/
.cqORIG{fill:#fff9cc;stroke:var(--color-text-form-secondary-1c3szk,#687078);stroke-width:0.6px;}/*!sc*/
data-styled.g93[id="sc-brCFrO"]{content:"cqORIG,"}/*!sc*/
.jFsCNC{stroke-width:0;stroke:none;fill:#f2f3f3;}/*!sc*/
data-styled.g95[id="sc-evrZIY"]{content:"jFsCNC,"}/*!sc*/
.eLRtqJ{font-size:10px;line-height:12.5;stroke:none;}/*!sc*/
data-styled.g96[id="sc-fIavCj"]{content:"eLRtqJ,"}/*!sc*/
</style><style>
.new-look-state-node &gt; rect:first-of-type {
  stroke: #687078;
  stroke-width: 1px;
  fill: #FFFFFF;
}

.new-look-state-node .error-icon circle {
 stroke-linejoin: round;
}

.new-look-state-node .error-icon circle, .new-look-state-node .error-icon path {
 stroke: var(--color-border-status-error-fybu9w, #d13212);
 fill: none;
 stroke-width: 2px;
}

.new-look-state-node.has-errors &gt; rect:first-of-type {
 stroke: var(--color-border-status-error-fybu9w, #d13212);
 fill: var(--color-background-status-error-h1a0iq, #fdf3f1);
}

.new-look-state-node .handle path {
  stroke: var(--color-border-dropdown-item-hover-d32f3f, #879596);
  stroke-width: 1px;
  fill: none;
}

.new-look-state-node {
  font-weight: 400;
  font-family: Amazon Ember, Arial, Roboto, Arial, sans-serif;
  text-shadow: none;
}

.new-look-state-node .line1 {
  fill: #687078;
  font-size: 12px;
}

.selected.node &gt; .new-look-state-node &gt; rect,
.selected.node &gt; .new-look-state-node &gt; .new-look-state-node &gt; rect,
.selected.node &gt; .new-look-state-node &gt; .bounding-box &gt; .new-look-state-node-sub &gt; rect
 {
  stroke: var(--color-border-status-info-0iedcr, #0073bb);
  fill: var(--color-background-status-info-yq3r41, #f1faff);
  stroke-width: 1px;
}

.new-look-state-node-sub .item-source.not-specified {
  height: 15px;
  color: #687078;
  font-family: "Amazon Ember";
  font-size: 12px;
  letter-spacing: 0;
  line-height: 16px;
  font-weight: 400;
}
.new-look-state-node-sub .item-source .item-source_name{
  font-weight: 600;
}
.new-look-state-node-sub .item-source.not-specified .item-source_name{
  font-weight: 400;
}

.new-look-state-node-sub .item-source.not-specified {
  font-style: italic;
}



.new-look-state-node-sub .item-source
.selected.node &gt; .new-look-state-node.has-errors &gt; rect,
.selected.node &gt; .new-look-state-node.has-errors &gt; .new-look-state-node &gt; rect,
{
 stroke: var(--color-border-status-error-fybu9w, #d13212);
 fill: #fde0da;
}

.new-look-graph .drag-source {
  opacity: 0.2;
}

.new-look-graph .edge, .new-look-graph path.starting-connection {
  stroke-width: 1px;
  stroke: var(--color-text-form-secondary-1c3szk, #687078);
  marker-end: url(#large-arrowhead);
}

.new-look-graph .edge-label {
  cursor: pointer;
}

.new-look-graph .edge-label rect {
  stroke-width: 1px;
  stroke: var(--color-border-control-default-jt0hca, #aab7b8);
  fill: var(--color-background-container-header-g9rg0j, #fafafa);
}

.new-look-graph .edge-label.selected rect {
  stroke: var(--color-border-status-info-0iedcr, #0073bb);
  fill: var(--color-background-status-info-yq3r41, #f1faff);
  stroke-width: 0.6px;
}



.new-look-graph .edge-label .label {
  fill: var(--color-text-form-secondary-1c3szk, #687078);
  font-family: Amazon Ember, Arial, Roboto, Arial, sans-serif;
}

/* centering the shape text */
@-moz-document url-prefix() {
  .new-look-graph .shape + text,
  .new-look-graph .edge-label text {
    transform: translateY(3.5px);
  }
}

.new-look-graph .edge path {
  marker-end: url(#large-arrowhead) !important;
}

.new-look-graph .edge.selected path{
  stroke: var(--color-border-status-info-0iedcr, #0073bb);
  stroke-width: 1.1px;
}

.new-look-graph .edge.dragging-over path, .new-look-graph  g.dragging-over .starting-connection {
  stroke: #5C86FF;
  stroke-width: 2px;
}

.new-look-graph .edge.dragging-over path, .new-look-graph .dragging-over path.starting-connection {
  marker-end: url(#large-highlighted-arrowhead) !important;
}

.new-look-graph .edge.dragging-over .edge-label text {
  fill: #5C86FF;
}

#large-highlighted-arrowhead {
  fill: #5C86FF;
}

#large-highlighted-arrowhead path {
  stroke: none;
}

.new-look-graph .edge.drop-not-supported path, g.drop-not-supported .starting-connection {
  stroke: red;
}

.new-look-graph .edge.drop-not-supported .edge-label text {
  fill: red;
}

.new-look-graph .edge.drop-not-supported path {
  marker-end: url(#large-error-arrowhead) !important;
}

#large-error-arrowhead {
  fill: red;
}


.node.Placeholder.dragging-over rect {
  stroke: var(--color-border-status-info-0iedcr, #0073bb);
  fill: var(--color-background-status-info-yq3r41, #f1faff);
  stroke-width: 2px;
}

.node.Placeholder.dragging-over .label {
  fill: var(--color-text-status-info-09r23g, #0073bb);
}

g.Placeholder rect {
  stroke-dasharray: 5 4;
  stroke: var(--color-border-dropdown-item-hover-d32f3f, #879596);
  fill: var(--color-background-control-default-8xmy94, #ffffff);
  stroke-width: 1px;
}

g.Placeholder .label {
  font-style: italic;
  fill: var(--color-text-input-placeholder-rtvjp5, #687078);
}

.node.Placeholder.drop-not-supported rect {
  stroke: red;
}

.node.Placeholder.drop-not-supported .label {
  fill: red;
}
</style><style>.line2 { font-size: 14px }</style></svg>